<svg xmlns="http://www.w3.org/2000/svg" width="51.208" height="58.001" viewBox="0 0 51.208 58.001"><defs><style>.a{fill:#d4311e;}.b{fill:#fff;}.c{fill:#6f8127;}</style></defs><g transform="translate(-1045.91 -1848.14)"><path class="a" d="M2563.59-3034.14s-2.27-5.52,1.08-14.17c2.54-6.56,9.67-15.96,21.69-14.91,1.56,4.89,1.9,6.63,1.71,9.13-1.42,18.4-21.51,20.66-24.48,19.95" transform="translate(-1491 4911.44)"/><path class="b" d="M2571.02-3041.02v-2.29a1.179,1.179,0,0,1,1.27-.76v3.05Z" transform="translate(-1491 4911.44)"/><path class="b" d="M2575.97-3052.53v-1.27a2.845,2.845,0,0,1,1.27-.26v1.53Z" transform="translate(-1491 4911.44)"/><path class="b" d="M2579.69-3054.75c1.67.63,3.33,1.24,5,1.86q-3.255,5.895-4.35,6.91a6.361,6.361,0,0,1-1.76-1.01q.66-3.66,1.11-7.76" transform="translate(-1491 4911.44)"/><path class="c" d="M2576.64-3007.01c-.18-19.93-17.24-36.3-38.02-36.49l-1.71-.02v5.87l1.68.02c17.81.17,31.9,13.63,32.07,30.65l.02,1.68h5.98Z" transform="translate(-1491 4911.44)"/></g></svg>