<svg xmlns="http://www.w3.org/2000/svg" width="51.208" height="58.001">
    <defs>
        <style>
            .b{fill:#fff}
        </style>
    </defs>
    <path d="M26.68 29.16s-2.27-5.52 1.08-14.17C30.3 8.43 37.43-.97 49.45.08c1.56 4.89 1.9 6.63 1.71 9.13-1.42 18.4-21.51 20.66-24.48 19.95" fill="#d4311e"/>
    <path class="b" d="M34.11 22.28v-2.29a1.179 1.179 0 011.27-.76v3.05zM39.06 10.77V9.5a2.845 2.845 0 011.27-.26v1.53zM42.78 8.55c1.67.63 3.33 1.24 5 1.86q-3.255 5.895-4.35 6.91a6.361 6.361 0 01-1.76-1.01q.66-3.66 1.11-7.76"/>
    <path d="M39.73 56.29c-.18-19.93-17.24-36.3-38.02-36.49L0 19.78v5.87l1.68.02c17.81.17 31.9 13.63 32.07 30.65l.02 1.68h5.98z" fill="#6f8127"/>
</svg>
