<svg xmlns="http://www.w3.org/2000/svg" width="47.141" height="39.427">
    <path d="M46.465 14.057A377.45 377.45 0 0024.335.207a1.523 1.523 0 00-1.64.07L.655 15.747a1.528 1.528 0 00-.38 2.13 1.537 1.537 0 001.25.65 1.508 1.508 0 00.88-.28l4.38-3.07a164.566 164.566 0 00.48 22.86 1.538 1.538 0 001.52 1.39c.05 0 .1-.01.14-.01a1.54 1.54 0 001.39-1.66 159.929 159.929 0 01-.37-24.47 1.717 1.717 0 00-.02-.32l13.73-9.63q5.64 3.285 11.2 6.8a1.506 1.506 0 00-.7 1.3c.14 8.26.51 16.63 1.09 24.86a1.528 1.528 0 001.52 1.42h.11a1.532 1.532 0 001.42-1.63c-.58-8.1-.94-16.33-1.09-24.45 2.54 1.63 5.07 3.27 7.55 4.95a1.527 1.527 0 002.12-.41 1.518 1.518 0 00-.41-2.12" fill="#5e4a1b"/>
</svg>
