<svg xmlns="http://www.w3.org/2000/svg" width="53.55" height="58" viewBox="0 0 53.55 58"><defs><style>.a{fill:#d4311e;}.b{fill:#6f8127;}</style></defs><g transform="translate(-355.886 -2731.041)"><path class="a" d="M1850.29-2159.78s-10.29-13.59,4.91-16.35c4.76-.19,8.56,5.21,8.56,5.21s6.84-13.91,10.94-8.03-1.39,18.66-3.1,23.26-17.43.88-21.31-4.09" transform="translate(-1491 4911.44)"/><path class="b" d="M1899.73-2156.98a11.227,11.227,0,0,0-6.67-5.35c-3.57-1.06-7.47-.37-11.57,2.07-6.2,3.67-7.03,12.02-6.7,18.12a11.937,11.937,0,0,0-5.32-3.47c-4.56-1.4-8.51-1.17-11.73.69a11.189,11.189,0,0,0-5.24,6.77c-.75,3.27,1.31,8.26,5.08,9.79,2.02.82,6,1.22,9.99-5.31l-2.85-1.74c-1.16,1.91-3.46,4.95-5.89,3.96-2.09-.85-3.51-4.08-3.08-5.96a7.886,7.886,0,0,1,3.65-4.62c2.39-1.38,5.45-1.51,9.08-.39,8.91,2.74,9.14,19.85,9.14,20.02l3.33-.02a42.84,42.84,0,0,0-2.41-13.28l.43-.1c-.03-.17-3.82-16.84,4.22-21.6,3.27-1.94,6.27-2.52,8.92-1.74a7.923,7.923,0,0,1,4.63,3.64c.86,1.73.23,5.2-1.61,6.52-2.13,1.52-5.08-.9-6.65-2.48l-2.36,2.35c5.4,5.43,9.18,4.11,10.95,2.84,3.31-2.37,4.14-7.7,2.66-10.71" transform="translate(-1491 4911.44)"/></g></svg>