<svg xmlns="http://www.w3.org/2000/svg" width="47.855" height="38.351">
    <path d="M1.358 30.974a3.505 3.505 0 003.01 4.43 278.167 278.167 0 0037.96 1.6 3.516 3.516 0 003.37-4.16 56.828 56.828 0 01.8-18.98 3.515 3.515 0 00-3.01-4.43 278.157 278.157 0 00-37.96-1.6 3.514 3.514 0 00-3.37 4.16 56.821 56.821 0 01-.8 18.98zm30.5-26.26c.07-1.65-1.68-3.07-3.87-3.16l-7-.3c-2.2-.09-4.05 1.18-4.12 2.83s1.67 3.07 3.87 3.17l6.99.29c2.2.1 4.06-1.18 4.13-2.83z" stroke-width="2.5" fill="none" stroke="#5e4a1b" stroke-miterlimit="10"/>
    <path d="M9.368 36.314l1.22-28.97m27.98 1.18l-1.22 28.97" stroke-width="2" fill="none" stroke="#5e4a1b" stroke-miterlimit="10"/>
</svg>
