<svg xmlns="http://www.w3.org/2000/svg" width="47.855" height="38.351" viewBox="0 0 47.855 38.351"><defs><style>.a,.b{fill:none;stroke:#5e4a1b;stroke-miterlimit:10;}.a{stroke-width:2.5px;}.b{stroke-width:2px;}</style></defs><g transform="translate(-768.412 -40.746)"><path class="a" d="M2260.77-4839.72a3.505,3.505,0,0,0,3.01,4.43,278.167,278.167,0,0,0,37.96,1.6,3.516,3.516,0,0,0,3.37-4.16,56.828,56.828,0,0,1,.8-18.98,3.515,3.515,0,0,0-3.01-4.43,278.157,278.157,0,0,0-37.96-1.6,3.514,3.514,0,0,0-3.37,4.16A56.821,56.821,0,0,1,2260.77-4839.72Z" transform="translate(-1491 4911.44)"/><path class="a" d="M2291.27-4864.98c.07-1.65-1.68-3.07-3.87-3.16l-7-.3c-2.2-.09-4.05,1.18-4.12,2.83s1.67,3.07,3.87,3.17l6.99.29C2289.34-4862.05,2291.2-4863.33,2291.27-4864.98Z" transform="translate(-1491 4910.44)"/><path class="b" d="M2268.78-4835.38l1.22-28.97" transform="translate(-1491 4912.44)"/><path class="b" d="M2297.98-4863.17l-1.22,28.97" transform="translate(-1491 4912.44)"/></g></svg>