<svg xmlns="http://www.w3.org/2000/svg" width="47.141" height="39.427" viewBox="0 0 47.141 39.427"><defs><style>.a{fill:#5e4a1b;}</style></defs><path class="a" d="M1977.58-4858.96c-7.18-4.85-14.63-9.51-22.13-13.85a1.523,1.523,0,0,0-1.64.07l-22.04,15.47a1.528,1.528,0,0,0-.38,2.13,1.537,1.537,0,0,0,1.25.65,1.508,1.508,0,0,0,.88-.28l4.38-3.07a164.566,164.566,0,0,0,.48,22.86,1.538,1.538,0,0,0,1.52,1.39c.05,0,.1-.01.14-.01a1.54,1.54,0,0,0,1.39-1.66,159.929,159.929,0,0,1-.37-24.47,1.717,1.717,0,0,0-.02-.32l13.73-9.63q5.64,3.285,11.2,6.8a1.506,1.506,0,0,0-.7,1.3c.14,8.26.51,16.63,1.09,24.86a1.528,1.528,0,0,0,1.52,1.42h.11a1.532,1.532,0,0,0,1.42-1.63c-.58-8.1-.94-16.33-1.09-24.45,2.54,1.63,5.07,3.27,7.55,4.95a1.527,1.527,0,0,0,2.12-.41,1.518,1.518,0,0,0-.41-2.12" transform="translate(-1931.115 4873.017)"/></svg>