<svg xmlns="http://www.w3.org/2000/svg" width="37.661" height="38.659" viewBox="0 0 37.661 38.659"><defs><style>.a{fill:#5e4a1b;}.b{fill:none;stroke:#5e4a1b;stroke-miterlimit:10;}</style></defs><g transform="translate(-991.144 -39.692)"><path class="a" d="M2487.73-4858.85h12.82a.557.557,0,0,0,.55-.56.555.555,0,0,0-.55-.55h-12.82a.548.548,0,0,0-.55.55.551.551,0,0,0,.55.56" transform="translate(-1491 4911.44)"/><path class="a" d="M2487.73-4856.09h12.82a.549.549,0,0,0,.55-.55.555.555,0,0,0-.55-.55h-12.82a.548.548,0,0,0-.55.55.542.542,0,0,0,.55.55" transform="translate(-1491 4911.44)"/><path class="a" d="M2487.73-4853.32h12.82a.549.549,0,0,0,.55-.55.555.555,0,0,0-.55-.55h-12.82a.548.548,0,0,0-.55.55.542.542,0,0,0,.55.55" transform="translate(-1491 4911.44)"/><path class="a" d="M2487.73-4850.55h12.82a.549.549,0,0,0,.55-.55.555.555,0,0,0-.55-.55h-12.82a.548.548,0,0,0-.55.55.542.542,0,0,0,.55.55" transform="translate(-1491 4911.44)"/><path class="a" d="M2487.73-4847.78h5.03a.549.549,0,0,0,.55-.55.555.555,0,0,0-.55-.55h-5.03a.548.548,0,0,0-.55.55.542.542,0,0,0,.55.55" transform="translate(-1491 4911.44)"/><path class="a" d="M2518.15-4863.75a15.536,15.536,0,0,1-2.36,4.65c-.05-.73-.11-1.46-.18-2.18a32.216,32.216,0,0,0,1.39-4.11,2.031,2.031,0,0,0,.04-.81,2.181,2.181,0,0,1,1.11,2.45m-3.72-4.81a1.978,1.978,0,0,0-.4-.16l.63-1.18a.478.478,0,0,1,.28-.22.449.449,0,0,1,.34.04l1.51.81a.458.458,0,0,1,.18.62l-.63,1.18a1.812,1.812,0,0,0-.36-.25Zm-7.57,19.74c-1.95,2.15-3,2.44-3.32,2.27s-.65-1.21.09-4.02a30.632,30.632,0,0,1,1.34-3.94l4.45,2.4a31.314,31.314,0,0,1-2.56,3.29m10.6-18.41.48-.9a1.555,1.555,0,0,0-.63-2.11l-1.5-.81a1.547,1.547,0,0,0-1.19-.13,1.562,1.562,0,0,0-.93.76l-.93,1.73a2.082,2.082,0,0,0-.83.55c-.58.63-1.19,1.37-1.8,2.18a181.5,181.5,0,0,0-18.36-.16c-1.69.07-3.4.16-5.07.28a3.855,3.855,0,0,0-3.56,3.41,85.662,85.662,0,0,0,0,18.39,3.854,3.854,0,0,0,3.55,3.42c.14,0,.27.01.4.02a1.309,1.309,0,0,1,.92.48.544.544,0,0,0,.43.21.6.6,0,0,0,.35-.12.564.564,0,0,0,.08-.78,2.428,2.428,0,0,0-1.71-.89l-.39-.03a2.726,2.726,0,0,1-2.53-2.43,83.445,83.445,0,0,1,0-18.15,2.735,2.735,0,0,1,2.53-2.43c1.67-.12,3.36-.21,5.04-.28,5.82-.25,11.72-.2,17.56.13-.37.52-.74,1.08-1.1,1.65a.547.547,0,0,0,.16.76.554.554,0,0,0,.77-.17,34.731,34.731,0,0,1,3.54-4.74.96.96,0,0,1,1.17-.2l1.54.84a.96.96,0,0,1,.48,1.08,41.345,41.345,0,0,1-3.69,8.94c-.71,1.3-1.45,2.55-2.2,3.7l-4.64-2.5c.55-1.26,1.19-2.56,1.9-3.87.21-.41.43-.8.65-1.17a.556.556,0,0,0-.21-.76.547.547,0,0,0-.75.21c-.22.38-.44.78-.67,1.19a42.648,42.648,0,0,0-3.76,9.08c-.64,2.44-.63,4.08.01,4.89l-.15.24a.552.552,0,0,0,.18.76.6.6,0,0,0,.29.08.537.537,0,0,0,.47-.26l.17-.28a1.387,1.387,0,0,0,.2.02c1.01-.01,2.33-.9,3.95-2.68a43.039,43.039,0,0,0,5.53-8.13c.53-.99,1.03-1.98,1.47-2.94.04.53.07,1.05.1,1.58-.04.07-.09.13-.13.2-1.87,2.79-3,4.55-2.89,5.59a.553.553,0,0,0,.55.5c.02,0,.04-.01.06-.01a.553.553,0,0,0,.49-.61c-.06-.56.95-2.2,2-3.79a83.712,83.712,0,0,1-.46,11.53,2.784,2.784,0,0,1-.2.78,2.726,2.726,0,0,1-2.33,1.65c-4.45.32-8.98.47-13.47.44a2.418,2.418,0,0,0-1.98,1.02,26.856,26.856,0,0,1-5.51,5.38.934.934,0,0,1-.99.09.906.906,0,0,1-.52-.84v-2.44a.557.557,0,0,0-.55-.56.551.551,0,0,0-.55.56v2.44a2.031,2.031,0,0,0,1.13,1.83,1.971,1.971,0,0,0,.91.22,2.057,2.057,0,0,0,1.23-.42,27.77,27.77,0,0,0,5.76-5.63,1.294,1.294,0,0,1,1.06-.55h.01c4.51.03,9.07-.12,13.55-.43a3.842,3.842,0,0,0,3.26-2.32,3.956,3.956,0,0,0,.29-1.1,84.538,84.538,0,0,0,.4-13.22c1.56-2.33,3.08-4.69,3.34-6.31a3.317,3.317,0,0,0-1.78-3.66" transform="translate(-1491 4911.44)"/><path class="b" d="M2518.15-4863.75a15.536,15.536,0,0,1-2.36,4.65c-.05-.73-.11-1.46-.18-2.18a32.216,32.216,0,0,0,1.39-4.11,2.031,2.031,0,0,0,.04-.81A2.181,2.181,0,0,1,2518.15-4863.75Zm-3.72-4.81a1.978,1.978,0,0,0-.4-.16l.63-1.18a.478.478,0,0,1,.28-.22.449.449,0,0,1,.34.04l1.51.81a.458.458,0,0,1,.18.62l-.63,1.18a1.812,1.812,0,0,0-.36-.25Zm-7.57,19.74c-1.95,2.15-3,2.44-3.32,2.27s-.65-1.21.09-4.02a30.632,30.632,0,0,1,1.34-3.94l4.45,2.4A31.314,31.314,0,0,1,2506.86-4848.82Zm10.6-18.41.48-.9a1.555,1.555,0,0,0-.63-2.11l-1.5-.81a1.547,1.547,0,0,0-1.19-.13,1.562,1.562,0,0,0-.93.76l-.93,1.73a2.082,2.082,0,0,0-.83.55c-.58.63-1.19,1.37-1.8,2.18a181.5,181.5,0,0,0-18.36-.16c-1.69.07-3.4.16-5.07.28a3.855,3.855,0,0,0-3.56,3.41,85.662,85.662,0,0,0,0,18.39,3.854,3.854,0,0,0,3.55,3.42c.14,0,.27.01.4.02a1.309,1.309,0,0,1,.92.48.544.544,0,0,0,.43.21.6.6,0,0,0,.35-.12.564.564,0,0,0,.08-.78,2.428,2.428,0,0,0-1.71-.89l-.39-.03a2.726,2.726,0,0,1-2.53-2.43,83.445,83.445,0,0,1,0-18.15,2.735,2.735,0,0,1,2.53-2.43c1.67-.12,3.36-.21,5.04-.28,5.82-.25,11.72-.2,17.56.13-.37.52-.74,1.08-1.1,1.65a.547.547,0,0,0,.16.76.554.554,0,0,0,.77-.17,34.731,34.731,0,0,1,3.54-4.74.96.96,0,0,1,1.17-.2l1.54.84a.96.96,0,0,1,.48,1.08,41.345,41.345,0,0,1-3.69,8.94c-.71,1.3-1.45,2.55-2.2,3.7l-4.64-2.5c.55-1.26,1.19-2.56,1.9-3.87.21-.41.43-.8.65-1.17a.556.556,0,0,0-.21-.76.547.547,0,0,0-.75.21c-.22.38-.44.78-.67,1.19a42.648,42.648,0,0,0-3.76,9.08c-.64,2.44-.63,4.08.01,4.89l-.15.24a.552.552,0,0,0,.18.76.6.6,0,0,0,.29.08.537.537,0,0,0,.47-.26l.17-.28a1.387,1.387,0,0,0,.2.02c1.01-.01,2.33-.9,3.95-2.68a43.039,43.039,0,0,0,5.53-8.13c.53-.99,1.03-1.98,1.47-2.94.04.53.07,1.05.1,1.58-.04.07-.09.13-.13.2-1.87,2.79-3,4.55-2.89,5.59a.553.553,0,0,0,.55.5c.02,0,.04-.01.06-.01a.553.553,0,0,0,.49-.61c-.06-.56.95-2.2,2-3.79a83.712,83.712,0,0,1-.46,11.53,2.784,2.784,0,0,1-.2.78,2.726,2.726,0,0,1-2.33,1.65c-4.45.32-8.98.47-13.47.44a2.418,2.418,0,0,0-1.98,1.02,26.856,26.856,0,0,1-5.51,5.38.934.934,0,0,1-.99.09.906.906,0,0,1-.52-.84v-2.44a.557.557,0,0,0-.55-.56.551.551,0,0,0-.55.56v2.44a2.031,2.031,0,0,0,1.13,1.83,1.971,1.971,0,0,0,.91.22,2.057,2.057,0,0,0,1.23-.42,27.77,27.77,0,0,0,5.76-5.63,1.294,1.294,0,0,1,1.06-.55h.01c2.034.014,4.078-.009,6.432-.077,2.175-.061,4.659-.183,7.118-.354a3.842,3.842,0,0,0,3.26-2.32,3.956,3.956,0,0,0,.29-1.1,84.538,84.538,0,0,0,.4-13.22c1.56-2.33,3.08-4.69,3.34-6.31A3.317,3.317,0,0,0,2517.46-4867.23Z" transform="translate(-1491 4911.44)"/></g></svg>