<svg viewBox="0 0 715 623" xmlns="http://www.w3.org/2000/svg" fill-rule="evenodd" clip-rule="evenodd" stroke-linecap="round" stroke-linejoin="round">
    <path d="M170.506 178.556h288.812c.257.017.515.026.773.026 6.352 0 11.579-5.227 11.579-11.579s-5.227-11.579-11.579-11.579c-.258 0-.516.009-.773.026H170.506a11.77 11.77 0 00-.774-.026c-6.352 0-11.579 5.227-11.579 11.579s5.227 11.579 11.579 11.579c.258 0 .516-.009.774-.026zM170.506 236.622h288.812c.257.017.515.026.773.026 6.352 0 11.579-5.227 11.579-11.579s-5.227-11.579-11.579-11.579c-.258 0-.516.009-.773.026H170.506a11.77 11.77 0 00-.774-.026c-6.352 0-11.579 5.227-11.579 11.579s5.227 11.579 11.579 11.579c.258 0 .516-.009.774-.026zM170.506 294.654h288.812c.257.017.515.025.773.025 6.352 0 11.579-5.226 11.579-11.578 0-6.352-5.227-11.579-11.579-11.579-.258 0-.516.009-.773.026H170.506a11.77 11.77 0 00-.774-.026c-6.352 0-11.579 5.227-11.579 11.579s5.227 11.578 11.579 11.578c.258 0 .516-.008.774-.025zM162.257 356.447h96.944c2.295 0 4.176-5.177 4.176-11.544 0-6.368-1.881-11.562-4.176-11.562h-96.944c-2.295 0-4.158 5.177-4.158 11.562 0 6.384 1.863 11.544 4.158 11.544z" fill="#5e4b1b" fill-rule="nonzero"/>
    <path d="M134.677 449.511l-23.207-1.016c-37.769-6.287-66.365-38.283-68.328-76.544-.002-.041-.002-231.746-.002-231.746 2.806-38.711 32.112-70.652 70.376-76.797.022-.004 410.496-18.003 410.496-18.003 35.314 2.516 63.027 32.446 62.69 67.926l-.001.205v284.722c0 .221.003.442.01.663 1.072 34.898-25.879 64.793-60.573 67.464-.029.002-273.543-11.87-273.543-11.87-11.893-.516-21.968 8.721-22.485 20.615-.516 11.893 8.721 21.968 20.615 22.484l274.714 11.924c.746.033 1.494.026 2.239-.019 58.245-3.528 103.789-53.325 102.161-111.62.001.046.001-284.281.001-284.281.493-58.683-45.813-108.075-104.42-111.349a21.374 21.374 0 00-2.148-.013L110.476 20.357c-.738.033-1.473.103-2.204.211C49.214 29.284 3.878 78.511.045 138.086c-.03.461-.045.923-.045 1.385v232.955c0 .325.007.649.022.974 2.682 59.336 47.309 108.966 106.027 117.914.764.117 1.534.192 2.306.226l24.435 1.07c11.893.521 21.972-8.712 22.492-20.606.521-11.893-8.712-21.972-20.605-22.493z" fill="#5e4b1b"/>
    <path d="M251.643 476.168L147.745 601.067l-11.147-75.495" fill="none" stroke="#5e4b1b" stroke-width="43.14"/>
    <path d="M498.494 132.662S417.403 25.633 537.207 3.879c37.479-1.517 64.817 35.65 64.817 35.65s41.716-69.634 94.591-24.059c53.721 46.309-30.025 128.334-56.662 155.896-26.884 27.817-53.392 34.054-141.459-38.704" fill="#d5321e" fill-rule="nonzero"/>
</svg>
