<svg xmlns="http://www.w3.org/2000/svg" width="42.599" height="42.94" viewBox="0 0 42.599 42.94"><defs><style>.a{fill:#5e4a1b;}</style></defs><path class="a" d="M2405.53-4843.25c-2.75,1.97-9.87,6.58-16.67,6.82a28.161,28.161,0,0,1-12.21-2.49l-1.38-6.26a13.254,13.254,0,0,1,1.94-1.29,7.666,7.666,0,0,1,3-.88,4.7,4.7,0,0,1,1.24.09c.08.01.16.03.25.05,3.38.67,7.85,2.05,9.12,2.45.23.07.35.11.35.11.46.18.65.46.6.64-.09.24-.72.64-2.2.28-1.86-.47-2.8-.78-3.49-1.01-.08-.03-.16-.06-.23-.08a6.818,6.818,0,0,0-1.79-.39,6.208,6.208,0,0,0-2.29.33,3.661,3.661,0,0,0-2.46,2.04l2.08.7c.14-.41,1.67-.96,2.48-.88a5.521,5.521,0,0,1,1.52.36c.68.23,1.7.57,3.64,1.06a7.044,7.044,0,0,0,1.61.21,3.748,3.748,0,0,0,2.28-.68,14.032,14.032,0,0,0,6.32-.75,75.851,75.851,0,0,0,7.86-3.08,2.973,2.973,0,0,1,1.12-.33c-.09.4-.64,1.51-2.69,2.98m-11.66-1.47,5.06.06c-.08.03-.17.06-.26.09a13.4,13.4,0,0,1-4.72.76,2.146,2.146,0,0,0-.08-.91m-18.98-16.58h7.86v3h-1v-3h17v3h1v-3h7.52l-2.98,11.58a3.381,3.381,0,0,1-3.54,2.62v.38l.1-.38-10.48-.06a86.636,86.636,0,0,0-8.56-2.26,7.853,7.853,0,0,0-3.92.28,2.279,2.279,0,0,1-.33-.73Zm-.17-2.95c.33-.42.84-1.05,1.44-1.05h29.8c.6,0,1.14.63,1.46,1.04s.46-.04.36,1.96h-33.39c-.11-2,0-1.55.33-1.95m16.26-9.8c4.08,0,7.41,2.75,7.65,6.75h-15.3c.23-4,3.57-6.75,7.65-6.75m-16.79,38.75h-4.51l-.01-8.59,3.42-.82,1.86,8.6Zm35.64-11.93c-.21-.36-1.08-1.45-3.5-.33q-.33.165-.66.3a5.5,5.5,0,0,0,.87-1.89l3.29-13.88a3.38,3.38,0,0,0-.71-3.18,3.731,3.731,0,0,0-3.16-1.09h-5.13a9.64,9.64,0,0,0-9.85-8.94,9.64,9.64,0,0,0-9.85,8.94h-4.97a3.713,3.713,0,0,0-3.16,1.11,3.757,3.757,0,0,0-.73,3.38l3.17,13.52a4.488,4.488,0,0,0,.43,1.1,10.548,10.548,0,0,0-1.33.83l-7.07,1.59.01,12.47h7.48l2.43-2.11-.25-1.21a29.922,29.922,0,0,0,10.88,2.09c.3,0,.61-.04.91-.04,7.3-.28,14.78-5.12,17.66-7.19,2.8-2,4.04-4.1,3.24-5.47" transform="translate(-2367.47 4876.24)"/></svg>