<svg xmlns="http://www.w3.org/2000/svg" width="32.822" height="39.848">
    <path d="M11.752 16.378a6.967 6.967 0 00-3.68 1.09 10.789 10.789 0 00-3.94 4.95 11.91 11.91 0 00-.12 9.59 8.1 8.1 0 007.42 4.78 16.359 16.359 0 003.25-.67c1.98-.54 4.02-1.1 6.2-.53a13.266 13.266 0 011.47.49c1.7.64 2.93 1.1 5.07-.7 3.05-2.58 2.89-8.94.84-13.26-.71-1.5-3.07-2.89-4.94-3.36a2.781 2.781 0 00-2.3.54 2.025 2.025 0 00-.46.53 1.53 1.53 0 01-.19.99 1.542 1.542 0 01-1.33 1.22 1.539 1.539 0 01-1.67-1.25c-.05-.27-.09-.55-.13-.82a7.753 7.753 0 00-3.5-3.23 5.535 5.535 0 00-1.99-.36m-.66 23.47a11.3 11.3 0 01-9.84-6.53 14.845 14.845 0 01.07-12.09 13.659 13.659 0 015.13-6.34 9.421 9.421 0 018.4-.99 8.664 8.664 0 012.19 1.27c.02-.78.06-1.55.09-2.31.15-3.4.3-6.62-.87-9.43a1.793 1.793 0 01-1.25-1.67 1.672 1.672 0 011.21-1.69 2.068 2.068 0 012.41 1.23c1.9 3.7 1.72 7.76 1.55 11.69-.05 1.13-.1 2.24-.11 3.32a5.709 5.709 0 014-.51c2.5.64 5.74 2.47 6.95 5.01 2.58 5.44 2.68 13.25-1.64 16.89-3.5 2.96-6.16 1.96-8.11 1.23a10.38 10.38 0 00-1.15-.39 9.212 9.212 0 00-4.63.52 18.27 18.27 0 01-3.89.77c-.17.01-.34.02-.51.02" fill="#5e4a1b"/>
</svg>
