<svg xmlns="http://www.w3.org/2000/svg" width="22.774" height="39.317" viewBox="0 0 22.774 39.317"><defs><style>.a{fill:#5e4a1b;}</style></defs><path class="a" d="M2062.11-4854.56a3.388,3.388,0,0,0-.45-.02,32.029,32.029,0,0,1-3.25.06c-2.2-.12-3.98-.76-4.75-1.7-1.1-1.34-.34-3.31.46-5.04.38-.83.71-1.79,1.06-2.79.68-2,1.45-4.25,2.72-5.53a15.058,15.058,0,0,1,5.21-.91,51.169,51.169,0,0,0,4.57,10.03l.15.25a7.526,7.526,0,0,1,1.32,3.17,2.124,2.124,0,0,1-1.48,2.14,8.824,8.824,0,0,1-1.92.04,10.256,10.256,0,0,0-3.64.3m3.47,2.12a10.738,10.738,0,0,0,3.32-.21,4.546,4.546,0,0,0,3.61-4.48,9.1,9.1,0,0,0-1.59-4.03l-.14-.25a49.209,49.209,0,0,1-4.53-10.05c-.1-.33-.54-1.12-2.21-1.37-2.41-.35-7.56.54-8.81,1.78-1.69,1.66-2.55,4.18-3.32,6.41-.33.97-.64,1.87-.98,2.61-1.03,2.25-1.98,4.83-.17,7.04,1.35,1.65,4.05,2.7,7.4,2.88.64.04,1.28.04,1.91.03a9.456,9.456,0,0,0,.21,2.83c.07.37.14.73.16.98.29,3.69.65,7.42,1.08,11.11-1.63.2-3.26.45-4.87.78a1.407,1.407,0,0,0-.86,1.59c.08.7.52,1.2,1.01,1.2a.9.9,0,0,0,.16-.02,59.852,59.852,0,0,1,12.43-1.23c.56-.01,1.02-.62,1.03-1.4s-.46-1.4-1.02-1.4c-1.51-.01-3.03.06-4.54.16-.42-3.63-.78-7.3-1.06-10.92-.03-.35-.1-.75-.18-1.17-.11-.62-.46-2.51-.01-2.82a9.145,9.145,0,0,1,1.97-.05" transform="translate(-2049.741 4872.907)"/></svg>