<svg width="280" viewBox="0 0 375 128" xmlns="http://www.w3.org/2000/svg" fill-rule="evenodd" clip-rule="evenodd" stroke-linejoin="round" stroke-miterlimit="2"><path d="M10.716 112.244a.847.847 0 00-.69.481c-.084.168-.251.677-.503 1.528L5.63 127.418l-4.018-12.851c-.307-.963-.558-1.584-.754-1.863-.181-.265-.467-.418-.858-.46v-.419h4.081v.419c-.53.056-.872.125-1.025.209-.209.126-.314.37-.314.733 0 .237.223 1.088.67 2.553l2.574 8.414 2.721-9.209c.196-.67.293-1.221.293-1.654 0-.432-.118-.718-.356-.858-.139-.07-.439-.132-.9-.188v-.419h2.972v.419zm23.452 15.028h-5.966v-.419c1.089-.041 1.766-.195 2.031-.46.251-.279.376-.872.376-1.779v-10.047c0-.935-.125-1.535-.376-1.8-.238-.237-.914-.391-2.031-.46v-.419h5.966v.419c-1.075.055-1.752.209-2.031.46-.251.265-.376.865-.376 1.8v10.047c0 .893.139 1.479.418 1.758.293.265.956.426 1.989.481v.419zm28.139-11.261c0 1.242-.391 2.268-1.172 3.077-.865.893-2.323 1.34-4.374 1.34-.866 0-1.493-.014-1.884-.042v4.144c0 .851.181 1.451.544 1.8.335.293.914.468 1.737.523v.419h-5.505v-.419c.81-.083 1.354-.321 1.633-.711.223-.335.335-.97.335-1.905v-9.775c0-.837-.126-1.388-.377-1.653-.265-.251-.795-.426-1.591-.523v-.419h5.38c1.521 0 2.749.321 3.683.963 1.061.739 1.591 1.8 1.591 3.181zm-1.402.042c0-2.316-1.682-3.474-5.044-3.474-.405 0-.663.042-.775.125-.139.14-.209.419-.209.837v6.091a14.48 14.48 0 001.737.084c.963 0 1.772-.153 2.428-.46 1.242-.587 1.863-1.654 1.863-3.203zm27.292 11.219h-3.998v-.419c.405-.028.684-.083.837-.167.293-.154.44-.447.44-.879 0-.349-.098-.851-.293-1.507l-.628-2.072h-4.312l-.691 2.658a3.857 3.857 0 00-.125.921c0 .446.118.739.356.879.111.084.328.139.648.167v.419H77.48v-.419c.112-.028.23-.062.356-.104.126-.042.244-.161.356-.356.223-.391.593-1.493 1.109-3.307l3.286-11.491h.126l3.977 13.207c.265.851.509 1.416.732 1.696.154.181.412.3.775.355v.419zm-3.872-5.819l-1.968-6.865-1.926 6.865h3.894zm29.698-9.209a.847.847 0 00-.69.481c-.084.168-.251.677-.503 1.528l-3.893 13.165-4.018-12.851c-.307-.963-.559-1.584-.754-1.863-.181-.265-.467-.418-.858-.46v-.419h4.081v.419c-.53.056-.872.125-1.025.209-.209.126-.314.37-.314.733 0 .237.223 1.088.67 2.553l2.574 8.414 2.721-9.209c.195-.67.293-1.221.293-1.654 0-.432-.118-.718-.356-.858-.139-.07-.439-.132-.9-.188v-.419h2.972v.419zm25.053 11.177c.056 1.06-.279 1.988-1.005 2.784-.795.893-1.877 1.339-3.244 1.339-.6 0-1.207-.139-1.821-.419-.6-.251-.963-.376-1.089-.376-.474 0-.739.258-.795.774h-.46l-.628-4.751h.502c.795 2.749 2.163 4.123 4.102 4.123.852 0 1.577-.293 2.177-.879.6-.572.9-1.2.9-1.884 0-.725-.223-1.374-.669-1.946-.503-.642-1.494-1.465-2.973-2.47-1.339-.893-2.142-1.486-2.407-1.779-.683-.684-1.025-1.528-1.025-2.533 0-1.228.37-2.197 1.109-2.909.67-.656 1.5-.984 2.491-.984.474 0 1.046.133 1.716.398.67.265 1.054.398 1.151.398.265 0 .426-.098.482-.293.042-.168.076-.335.104-.503h.461l.46 4.772h-.502c-.223-1.144-.621-2.086-1.193-2.825-.698-.893-1.556-1.34-2.575-1.34-.6 0-1.144.196-1.632.586-.572.489-.858 1.117-.858 1.884 0 .991.607 1.954 1.821 2.888 1.13.81 2.267 1.626 3.411 2.449 1.256 1.061 1.919 2.226 1.989 3.496zm26.611 3.851h-4.521v-.419c.475-.055.803-.132.984-.23.182-.084.272-.258.272-.523 0-.447-.725-1.758-2.177-3.935l-1.779-2.658-.816 1.13v4.061c0 .823.098 1.374.293 1.653.195.265.579.433 1.151.502v.419h-4.123v-.419c.726-.083 1.179-.348 1.36-.795.084-.209.126-.76.126-1.654v-10.067c0-.893-.105-1.465-.314-1.716-.139-.154-.53-.266-1.172-.335v-.419h4.333v.419c-.698.069-1.138.195-1.319.376-.223.252-.335.81-.335 1.675v5.295c1.94-2.497 3.182-4.151 3.726-4.96.516-.782.774-1.382.774-1.8 0-.224-.07-.37-.209-.44-.14-.07-.426-.118-.858-.146v-.419h4.123v.419c-.265.014-.53.035-.795.062a1.272 1.272 0 00-.712.314c-.293.224-.642.621-1.047 1.193l-3.411 4.605 4.081 6.217c.531.795.949 1.346 1.256 1.653.363.349.733.523 1.109.523v.419zm25.817 0h-3.998v-.419c.405-.028.684-.083.837-.167.293-.154.44-.447.44-.879 0-.349-.098-.851-.293-1.507l-.628-2.072h-4.312l-.691 2.658a3.857 3.857 0 00-.125.921c0 .446.118.739.356.879.111.084.327.139.648.167v.419h-2.951v-.419c.112-.028.23-.062.356-.104.126-.042.244-.161.356-.356.223-.391.593-1.493 1.109-3.307l3.286-11.491h.126l3.977 13.207c.265.851.509 1.416.732 1.696.154.181.412.3.775.355v.419zm-3.872-5.819l-1.968-6.865-1.926 6.865h3.894zm55.493-1.842c0 2.01-.377 3.67-1.13 4.982-1.019 1.786-2.644 2.679-4.877 2.679h-4.667v-.419c.655-.083 1.095-.244 1.318-.481.265-.307.398-.865.398-1.674v-10.236c0-.851-.133-1.423-.398-1.716-.195-.223-.635-.377-1.318-.46v-.419h4.458c1.981 0 3.516.656 4.605 1.968 1.074 1.297 1.611 3.223 1.611 5.776zm-1.444.021c0-2.344-.502-4.158-1.507-5.442-.851-1.074-2.198-1.611-4.04-1.611-.404 0-.669.104-.795.314-.07.125-.105.383-.105.774v11.784c0 .516.105.844.314.984.154.083.412.125.775.125 3.572 0 5.358-2.309 5.358-6.928zm27.24-.083c0 2.414-.517 4.367-1.549 5.86-.977 1.423-2.233 2.135-3.768 2.135-1.521 0-2.777-.712-3.767-2.135-1.033-1.493-1.549-3.446-1.549-5.86 0-2.526.551-4.535 1.653-6.028 1.005-1.34 2.226-2.01 3.663-2.01 1.451 0 2.672.67 3.663 2.01 1.102 1.479 1.654 3.488 1.654 6.028zm-1.403-.021c0-2.498-.432-4.431-1.298-5.798-.711-1.116-1.583-1.675-2.616-1.675-1.018 0-1.884.559-2.595 1.675-.865 1.367-1.298 3.3-1.298 5.798 0 2.456.412 4.353 1.235 5.693.712 1.144 1.598 1.716 2.658 1.716 1.061 0 1.947-.572 2.658-1.716.838-1.34 1.256-3.237 1.256-5.693zm27.24 3.872l-.817 3.872h-9.837v-.419c.656-.069 1.116-.237 1.381-.502.307-.349.461-.956.461-1.821v-10.068c0-.893-.161-1.493-.481-1.8-.238-.195-.691-.321-1.361-.376v-.419h5.002v.419c-.711 0-1.193.104-1.444.314-.349.307-.523.928-.523 1.862v10.989c0 .502.119.816.356.942.223.112.767.167 1.632.167 1.619 0 2.707-.139 3.266-.418.809-.377 1.458-1.291 1.946-2.742h.419zm23.503 3.872h-5.965v-.419c1.088-.041 1.765-.195 2.03-.46.251-.279.377-.872.377-1.779v-10.047c0-.935-.126-1.535-.377-1.8-.237-.237-.914-.391-2.03-.46v-.419h5.965v.419c-1.074.055-1.751.209-2.03.46-.251.265-.377.865-.377 1.8v10.047c0 .893.14 1.479.419 1.758.293.265.956.426 1.988.481v.419zm28.213-14.965c-.488.097-.781.251-.879.46-.154.335-.23 1.151-.23 2.449v12.265h-.042l-7.608-13.04h-.168v9.21c0 1.228.112 2.051.335 2.47.223.418.649.663 1.277.732v.419h-3.412v-.419c.586-.097.942-.53 1.068-1.297.041-.224.062-.858.062-1.905v-10.089a31.85 31.85 0 00-.418-.795c-.238-.307-.475-.46-.712-.46v-.419h2.032l6.937 11.7v-8.372c0-1.242-.126-2.051-.377-2.428-.195-.251-.614-.412-1.256-.481v-.419h3.391v.419zm25.816 14.965h-3.997v-.419c.404-.028.683-.083.837-.167.293-.154.439-.447.439-.879 0-.349-.097-.851-.293-1.507l-.628-2.072h-4.311l-.691 2.658a3.811 3.811 0 00-.126.921c0 .446.119.739.356.879.112.084.328.139.649.167v.419h-2.951v-.419c.111-.028.23-.062.356-.104.125-.042.244-.161.355-.356.224-.391.593-1.493 1.11-3.307l3.286-11.491h.125l3.977 13.207c.265.851.51 1.416.733 1.696.153.181.411.3.774.355v.419zm-3.872-5.819l-1.967-6.865-1.926 6.865h3.893zM51.572 10.105c.209.059.288.207.209.414-.062.218-.253.367-.526.437a3.57 3.57 0 01.317-.851m-11.788 63.9c-.086-.074-.113-.138-.113-.212.069-.296-.114-.427-.544-.427v.639h.657zm0-1.499v-.328c0-.215-.113-.284-.342-.215a1.599 1.599 0 00-.315.215c.077.206.288.328.657.328m1.807 2.665c.138-.138.227-.245.227-.306a3.734 3.734 0 01-.227-.224c.138-.289.227-.491.227-.636.081-.424 0-.639-.227-.639-.204 0-.593.215-1.166.639a52.71 52.71 0 00-1.509 1.166h2.675zM33.032 55.88c.12-.072.279-.141.422-.212-.143-.291-.422-.503-.86-.648l.438.86zm-2.15-42.881a.683.683 0 01-.116-.329c0-.145-.137-.21-.427-.21v.539h.543zm-3.226 56.285v-.315c0-.23-.098-.325-.323-.325l.323.64zm-3-52.114v-.86h-.848v.537l.848.323zm-1.185 51.799c.221 0 .432-.041.651-.115 0-.281-.314-.457-.956-.539l.305.654zm4.412-9.769v-2.079c0-.749.027-1.562.098-2.43 0-.709-.027-1.215-.098-1.49h-.55c-.283-2.859-.573-5.719-.853-8.577l-.641-.215-.335-2.04c0-.135.09-.461.232-.96.131-.36.175-.71.103-1.078l-.858-1.824v-3.321l-.534-.538v-.649c0-.561.051-1.442.149-2.622.114-1.176.132-1.869.06-2.087l-.642-1.403h-.543c-.068.307-.068.656 0 1.086 0 .129-.209.348-.629.632v.543c.561.141.789.686.629 1.601l-.629 1.083v3.218c0 .562-.106 1.352-.317 2.361-.508 2.359-.761 3.748-.761 4.173v2.67l-.641.982v3.534l-.959 1.391a46.14 46.14 0 01.087 2.571c0 .503-.087 1.142-.312 1.936l-.644.212c.15.065.248.649.32 1.714.069 1.078.577 1.718 1.508 1.925.28 0 .559-.031.85-.104.648-.215 1.139-.288 1.498-.215l.976.858c.209.074.825-.039 1.815-.371 1.007-.322 1.552-.487 1.621-.487m-8.147-33.769c.054-.364.09-.575.09-.639-.064-.224-.245-.293-.531-.224-.285.142-.319.323-.113.543.229.215.399.32.554.32m-1.62-11.8c.216-.632.314-1.069.314-1.284 0-.426-.176-.571-.526-.426l-.314.539c-.158-.074-.258-.074-.326 0v1.171h.852zm-.852 43.432c-.071-.359-.185-.534-.324-.534l.324.534zm0-37.74v-.43c-.071-.154-.185-.154-.324 0v.964l-.528.315c.064.22.167.395.317.542.289-.296.491-.685.638-1.184-.079-.072-.103-.137-.103-.207m13.935 74.518c-1.28 0-2.886-.133-4.824-.379-1.928-.25-3.183-.378-3.754-.378-.939 0-1.604.03-2.034.114-.361 0-1.044.101-2.041.317-1.011.223-1.817.326-2.476.326l.342-.643h1.178v-.539l1.499-.644.206-.864c.583.069 1.013.069 1.292 0 .361-.277.745-.596 1.177-.97l1.078.659c1.061-.5 1.886-.715 2.454-.659l1.184 1.194c.712-.359 1.403-.431 2.044-.224l.853 1.174c.567.298 1.181.59 1.822.873v.643zm-15.77-58.337a.62.62 0 00.32-.111c-.204-.28-.379-.413-.518-.413l.198.524zm.983 13.943c-.526.134-.902.539-1.181 1.185a3.906 3.906 0 01-.652.323c0 .065.116.25.325.525.351-.362.711-.71 1.07-1.069.15-.284.28-.606.438-.964m-.983-31.628c0-.504-.059-.825-.198-.972-.58.073-.905.073-.974 0v.972c.209.066.577.218 1.059.424 0-.143.054-.279.113-.424m-2.883 74.84c.142-.57-.038-.859-.544-.859v.426c.069.073.243.21.544.433m0-19.622v-.531h-.966l.966.531zm-1.396 7.182c-.068-.07-.112-.214-.112-.424 0-.146-.185-.22-.526-.22v.644h.638zm-.429 12.106c-.072-.065-.072-.201 0-.425.07-.424-.121-.6-.536-.525l-.325.425v.525h.861zM9.32 67.14c.734 0 1.079-.101 1.079-.322 0-.151-.258-.358-.757-.647-.498-.284-.823-.461-.965-.539l.643 1.508zm-.643 8.901c.282.069.395-.04.326-.32-.068-.296-.282-.473-.64-.55l.314.87zm-1.826 9.43l-.523-.221.317.548c.206 0 .455-.049.754-.112-.071-.069-.255-.151-.548-.215m-.847 4.5c0-.424-.115-.643-.324-.643l.324.643zm-.535-14.465a2.85 2.85 0 01-.322-.641l.322.641zm42.244 16.509l-.213 3.222a195.04 195.04 0 00-6.959-.969 44.429 44.429 0 00-5.262-.323c-1.012 0-1.766.025-2.247.108a34.485 34.485 0 01-.704-1.929c-.262-.715-.348-1.358-.279-1.943.157-.284.22-.464.22-.533.212-.492.325-.781.325-.844l-.545-.332V86.44c-.069-.285-.097-.784-.097-1.512.072-1.205.097-2.098.097-2.669l-.639-.328c.071-1.08.114-1.887.114-2.47 0-.492-.043-.85-.114-1.07l-.528-.856v-2.67l-.543-.224v-.636l-.325-3.226c-.42.297-.849.365-1.289.219-.13-.06-.361-.289-.629-.64a10.751 10.751 0 01-.44-.543c-.274-.062-.701-.105-1.281-.105-.508 0-1.147.048-1.928.161-.789.116-1.221.159-1.281.159-.228 0-.623-.075-1.193-.215l-.85-.846a2.07 2.07 0 01-.536.096v.439c-.508.35-1.405.177-2.683-.535l-.314.846c.059.433.172.822.314 1.183l-.64.328c.068.352.132.612.212.741.149.292.173.61.114.97l-.861.645v5.779c-.08.583-.175.929-.317 1.083-.366.065-.681.144-.983.22.231.211.32.534.32.956 0 .43-.089.714-.32.854l.641.218c-.061.788-.15 1.611-.262 2.458-.094.866-.298 1.766-.577 2.679.198 0 .314.086.314.229-.072.206-.175.314-.314.314 0 .856-.07 1.753-.212 2.679-.157.938-.298 1.832-.44 2.69h-3.216l-.213-.97c-.359-.075-.717.044-1.068.327-.079.136-.141.25-.222.317-.427.073-1.129-.053-2.087-.378-.964-.329-1.557-.478-1.769-.478l-.324.856c-.641-.067-1-.067-1.072 0v-1.5l-.647-.64c-.141 0-.271.101-.43.319 0 .063-.038.171-.098.321-1.155-.078-1.964-.078-2.472 0 .369-.864.534-1.429.534-1.727 0-.348-.255-.663-.745-.96.211-.921.606-1.886 1.176-2.888a3.558 3.558 0 01-.317-.969v-.221l.966-1.176c.061-.782.103-1.316.103-1.601.072-.569.324-.929.755-1.073l-.647-.856c.14-.154.243-.395.332-.749.061-.362.166-.646.315-.865l.851-.21-.65-1.824.974-3.214.219-.645v-1.711l.853.313c-.361-.701-.533-1.316-.533-1.824a9.351 9.351 0 00.533-2.36v-.539c-.069-.057-.133-.057-.211 0v-.632l.535-.652c-.143-.219-.211-.347-.211-.422-.157-.368-.182-.68-.113-.964.778-.575 1.322-.974 1.604-1.189-.202-.498-.433-1.04-.639-1.608 0-.277.288-.522.87-.747a1.795 1.795 0 01-.327-.644c-.088-.069-.255-.242-.543-.539-.071-.142.113-.784.543-1.925.051-.356.278-.922.641-1.714l-.545-1.39 1.079-.655a17.605 17.605 0 01-.219-2.88l.533-.323v-.862c.282-.279.501-.503.643-.645.298-.274.471-.569.54-.858.143-.571.222-1.293.222-2.144 0-.499-.106-1.249-.325-2.25-.211-1.005-.324-1.793-.324-2.349 0-.515.044-.912.113-1.193l.966-.641c-.219-.728-.327-1.228-.327-1.498.07-.444.132-.79.214-1.076.137-.431.392-1.066.751-1.93.071-.138-.068-.319-.429-.538v-1.499l.859-.531c0-.144-.114-.497-.315-1.074-.227-.57-.273-1.114-.115-1.62 0-.21.177-.416.528-.634.298-.14.567-.317.868-.535-.209-.868-.325-1.645-.325-2.353 0-.792.116-1.692.325-2.691-.141-1.148-.209-2.007-.209-2.582 0-.562.068-.983.209-1.272l1.175-.534-1.175-.969c.281-.79.569-1.575.85-2.355a4.048 4.048 0 01-.103-.754c-.151-.718-.178-1.15-.116-1.298l.219-.948h.637c-.206-1.004-.312-1.758-.312-2.262h3.008c.069-.425.235-.632.535-.632l3.524.632c.728-.275 1.325-.425 1.833-.425.571.207 1.187.425 1.826.644l.209-.851c.797.059 1.51.158 2.158.254.631.119 1.208.103 1.71-.047l.641-.548c.138 0 .779.138 1.921.387 1.147.252 1.962.311 2.471.161l.853-.859c0 1.788.235 4.349.692 7.665.481 3.321 1.069 6.48 1.77 9.487-.201.15-.314.539-.314 1.18 0 .294.079.908.216 1.89.151.943.239 1.658.317 2.074-.42.216-.647.396-.647.535l1.306 1.184c.13.277.201.693.201 1.18v2.037l.965 2.687a42.697 42.697 0 00-.314 3.212l.525.315c.149.296.252.974.315 2.035.089 1.081.195 1.794.342 2.153l.526 1.822c-.062.216-.14.397-.209.538-.072.705-.116 1.099-.116 1.185l-.858.323c.077.641.077 1.039 0 1.176.149-.075.366-.4.657-.97h.526l.638 2.674-.963 1.185c-.57.28-1.139.571-1.709.86v.961l2.884-.312c.227.845.431 1.758.658 2.731.211.965.211 1.627 0 1.982-.158.149-.243.207-.322.207a5.57 5.57 0 01-.859.323c-.072.08-.141.245-.212.546 0 .068-.044.198-.115.413.139 0 .255.224.327.654l2.033.212c-.071.439-.139.818-.211 1.188 0 .425.113.969.386 1.658.228.684.508 1.296.789 1.872v2.043l.544.64v.965l.315 3.758c-.138.07-.29.171-.431.32a1.081 1.081 0 01-.198.32c-1.65-.067-2.843-.067-3.554 0v.851c.139 0 .437.298.85.864.371.071.569.03.658-.102.142-.284.245-.439.324-.439h2.678c-.072.5-.037 1.228.095 2.205.157.967.403 1.98.755 3.052l.647.642c.062.37 0 .68-.211.969-.078.061-.157.145-.228.214l.983 2.041v2.454l.639.536c.07.377.029.723-.114 1.076-.138.427-.211.791-.211 1.076l.538.215zM86.948 77.76c-.071-.071-.095-.224-.095-.435 0-.227-.185-.32-.556-.32v.755h.651zm-5.682-43.964v-.965c-.07-.212-.255-.327-.534-.327v1.292h.534zm-10.824-8.685a5.774 5.774 0 01-.551-.221c.087-.213.254-.353.551-.43v.651zm26.16 57.78v2.907c0 2.497-.103 4.927-.324 7.286l-2.147-.96-.201.646h-1.518l-.317-.646h-2.786c-.142-.148-.216-.258-.216-.324-.076-.219-.285-.284-.647-.219v.543c-1-.078-1.753-.109-2.237-.109-.595 0-1.007.031-1.297.109v.646h-2.026c-.077-.289-.342-.509-.752-.646.069-.078.096-.285.096-.648 0-.067-.027-.257-.096-.532.359-.357.683-.574.965-.655l2.682.55v-1.192h-.982v-.956c-.14-.14-.693-.176-1.7-.104v-7.289h-.965v-.447h.752l.213-11.036c.342-.061.571-.105.629-.105.218-.141.218-.271 0-.425h-.629a46.734 46.734 0 01-.326-3.872 60.08 60.08 0 00-.332-3.965h1.287v-.521l-1.287-.655v-1.485c.219-.513.445-1.009.658-1.513v-2.04c0-.78-.326-1.316-.965-1.601v-.638h.965v-5.372c0-1.215-.169-2.623-.491-4.232-.327-1.605-.474-2.586-.474-2.947.209-.499.307-.908.307-1.184h-1.175v-1.284c-1.377-.293-2.09-.435-2.158-.435-.43 0-1.246.575-2.484 1.719l-.832.532v2.034h-.639l-.317 17.167h.433l-.116 1.6c-.351.855-.317 1.324.116 1.393a1.608 1.608 0 01-.433.331c0 1.21.051 2.568.15 4.07.113 1.507.167 2.352.167 2.582l.973.631-.973.215v1.618l-.642.206c0 .429.072.72.227.866.126.134.275.287.415.414v3.017h.43c-.131.066-.273.145-.43.203v2.15a.277.277 0 00.211-.1c.088.069.219.396.428.961a4.004 4.004 0 01-.523.311c0 .088-.047.304-.116.657h.43l-.43 2.455h.639v4.395l-.956.329v.43c.15.069.245.104.317.104.577.287.894.532.973.756.061.41.034.914-.113 1.451a21.936 21.936 0 01-.561 1.762 96.215 96.215 0 01-3.482.598c-1.211.164-1.938.182-2.14.039-.089-.422-.317-.637-.675-.637v.637h-3.002v.647h-2.041v-.647c-.492 0-.904.065-1.187.221-.202.137-.408.283-.632.426-.075-.212-.26-.426-.532-.647v-9.546a.976.976 0 00.429-.098c0-.065.028-.293.103-.643l-1.188-.545v-1.81h.656v-3.656c-.44-.203-.656-.388-.656-.532l.868-.32v-.115c-.144-.276-.325-.35-.526-.21.132-.57.201-1.35.201-2.35v-1.613c0-1.356.113-2.425.325-3.22-.369-.205-.526-.42-.526-.639h.526v-1.071c-.07-.288-.256-.324-.526-.108v-1.076c.06-.289.235-.328.526-.099v-1.07c-.07-.291-.256-.33-.526-.12a48.753 48.753 0 01-.126-3.324c0-1.21.221-2.032.652-2.467h.428a.449.449 0 01-.108-.315h-.532c-.079-.071-.079-.426 0-1.068l-.656-.437c0-.359.216-.642.656-.859.351-1.429.142-2.536-.656-3.319v-.852c.499-.298.749-.573.749-.865-.407-.643-.662-1.069-.749-1.283v-1.509l1.188-1.174c-.075-.07-.276-.143-.645-.207-.069 0-.253-.044-.543-.113.147-.421.358-.755.656-.961-.298-.79-.474-1.715-.543-2.798a60.189 60.189 0 01-.113-3.96v-2.253a1.377 1.377 0 01-.214-.328c.143-.059.327-.146.556-.211v-2.462l-.556-.327c.072-.074.255-.133.556-.22-.369-1.284-.556-2.389-.556-3.311 0-.78.187-1.796.556-3.006a1.347 1.347 0 01-.556-.856c2.93.28 5.08.438 6.438.486 1.358.027 2.791.039 4.299.039.14-.779.254-1.176.324-1.176.342 0 .597.095.745.291.211.372.353.575.43.575h1.498c0 .14.027.284.113.425.126 0 .319.075.531.216 0 1.064-.047 1.894-.116 2.473-.072.568-.457 1.455-1.167 2.67.42-.135.85-.277 1.283-.422.277-.153.549-.63.806-1.452.252-.814.367-1.349.367-1.555h.543v-1.076c.14-.066.57-.066 1.281 0v-.638h1.191v-.641h2.353v-.649c.35 0 .999-.039 1.918-.11a32.038 32.038 0 012.149-.107c.499 0 1.185.077 2.037.217v.649c.586-.082.972-.082 1.179 0l.968.964h1.392l1.292 1.82h.543c-.078.579-.078.962 0 1.181l1.167.538v1.281h.639c-.209.14-.42.252-.639.319v.855h.639v1.184h.648c.062.363 0 .904-.216 1.607-.214.727-.351 1.187-.432 1.397-.069.214.044.429.334.644v12.538h.525v2.153l-.859.323c-.069.359-.097.75-.097 1.181 0 .421.028.817.097 1.178.081.078.218.078.432 0 .076.078.154.177.216.316h-.857l-.43.321c.068.284.29.5.639.639v1.725h.648c.211 1.43.319 2.782.319 4.066 0 .804-.017 1.576-.054 2.361-.026.79-.054 1.548-.054 2.255 0 1.432.108 2.471.325 3.113-.5.284-.966.568-1.393.853-.071.141-.071.47 0 .96l.543.335v1.179h.525v.526c-.149.074-.273.16-.427.229.154.917.278 1.854.427 2.772-.351.441-.525.866-.525 1.296h.525v3.541h.649c0 .21-.103.451-.324.744-.217.284-.325.679-.325 1.171h.649zm40.105-41.81a.436.436 0 01-.113-.311c0-.158-.186-.224-.536-.224v.535h.649zm-1.832.744c-.062-.06-.114-.21-.114-.416 0-.211-.159-.328-.525-.328v.744h.639zm-1.818-5.472c-.079-.053-.103-.167-.103-.303 0-.157-.155-.217-.43-.217v.52h.533zm-3.53 29.182c.059.137.137.245.199.319-.062.072-.253.171-.526.317v-.426c0-.137.098-.21.327-.21m2.997-5.262l-.325-.646h-1.51v-.525c-.278-.069-.673-.108-1.162-.108a8.26 8.26 0 01-1.292.108c.212.275.423.525.641.746.218.14.324.284.324.425 0 .08-.184.474-.542 1.176h-.639v1.192l-1.819.632c-.085-.426-.252-.632-.542-.632v4.176h-.641v.543h.641v3.638h-.641v1.825c.15.061.291.061.428 0 .064.061.142.254.213.543h-.641v.639l1.183.533c0 .13-.183.359-.542.633 0 1.369.052 2.316.165 2.851.113.541.449 1.373 1.016 2.522h.529c.079.065.113.177.113.306 0 .229.187.298.538.229V79.9h1.822l.534-1.711h.641v-1.184h.645v-2.467c-.356-.211-.577-.388-.645-.533.147-.074.331-.174.542-.323 0-.135.018-.43.103-.859-.425 0-.645-.256-.645-.756v-1.069c.147-.06.331-.176.542-.328 0-.14.018-.422.103-.856h-.645v-4.279a.452.452 0 00-.42 0c-.089 0-.141-.15-.221-.43l1.286-.643v-1.189c-.498-.064-.748-.392-.748-.955 0-.301.031-.546.103-.761.22-.424.331-.669.331-.741.074-.224.458-.401 1.177-.543m13.391 28.531l-.948.308c-.216.936-.412 1.86-.552 2.788h-.86l-.317.649c-.779.074-1.287.074-1.488 0v-1.288h-1.185l-.325.639h-1.183v.649c-.221 0-.316-.222-.316-.649h-.867v.649h-.958V91.9a55.047 55.047 0 01-3.007.116c-.568 0-.955-.04-1.174-.116-.149-.424-.324-.639-.536-.639v-1.714h-.852v.53h-1.304v1.184h-1.062l-.746 1.288c-.649-.134-.999-.134-1.079 0v.435c-.43.131-1.114.214-2.026.214-.437 0-1.123-.043-2.049-.114a29.1 29.1 0 00-1.933-.1v.315c0 .216-.095.325-.324.325v-.64H118.8a99.55 99.55 0 01-2.631-2.096c-.835-.676-1.24-1.06-1.24-1.123v-.961l-1.277-.875v-1.813h-.544l-.634-2.248h-.542l.542-.33c-.215-.708-.356-1.616-.436-2.732-.082-1.113-.106-2.297-.106-3.594h-.646c.216-.062.428-.137.646-.207v-1.588c0-.548.024-1.116.106-1.705 0-.657-.038-1.134-.106-1.429h-.646v-1.07c-.282-.136-.464-.25-.538-.318h1.184V65.03l.862-.434v-2.021l.636-.201v-1.616l1.072-.844c.07-.21.142-.728.227-1.54.062-.823.239-1.408.526-1.766.141-.206.399-.317.755-.317.422 0 .754-.062.966-.2l1.183-1.816c.56.069.966.069 1.167 0l.658-1.28h1.164l.661-1.207c.268-.127.776-.192 1.491-.192.707 0 1.209-.077 1.498-.229l.533-1.276c.642.061 1.037.061 1.184 0v-1.183c.582.083.966.083 1.175 0 0-.352.247-.752.757-1.179.211-.206.569-.43 1.08-.642v-.533h.516c-.062-.853-.062-1.465 0-1.826.44.206.87.439 1.304.654-.225-1.007-.331-1.688-.331-2.053 0-1.143-.103-2.06-.327-2.783h1.186v-.537h.649a126.41 126.41 0 00-.649-.637v.637c-.639-.064-1.044-.064-1.186 0v-1.168c0-.585-.206-.98-.646-1.186v-.639l-2.353-.663c-.07.448-.243.663-.534.663v-.663c-.273.09-.488.293-.624.663-1.105-.074-1.856-.074-2.267 0-.07.35-.108.706-.108 1.069 0 .283-.22.504-.64.633v.654c.49.284.711.664.64 1.174h-.64v2.469c0 .499.024.858.088 1.068.376.356.552.791.552 1.299h-.64v2.263c-.359.21-.544.421-.544.622h-2.989a7.753 7.753 0 00-.336 1.18c-.705-.141-1.209-.237-1.489-.297-.079-.414-.157-.805-.219-1.206-.58-.146-1.01-.215-1.289-.215-.43 0-1.076.095-1.922.271-.866.17-1.508.267-1.935.267-.572 0-.975-.069-1.176-.219-.15-.365-.332-.538-.548-.538a48.19 48.19 0 00-.114-3.557 501.376 501.376 0 00-.208-3.682c0-1.309.115-2.382.322-3.242h.548v-1.843h.314c.137-.206.29-.434.439-.642v-.431c0-.718.254-1.242.737-1.609a3.572 3.572 0 01-.314-.861c.278-.056.568-.187.858-.31v-.864l1.814-1.828h.868c.132-.146.211-.28.211-.422 0-.14.037-.434.106-.858h1.815v-.536l2.358-.535v-.653h1.825c.079-.439.185-.657.324-.657.508 0 .964.11 1.395.324.43.223.87.333 1.29.333v-.657h8.049v.657h2.351v.653c.423.07.745.111.973.111.712.139 1.212.276 1.482.424.158.487.255.855.323 1.062.082.224.255.363.546.439h1.498l.538 2.143c.708.364 1.137.64 1.28.864v1.499l.54.317v4.081h1.177c-.29 1.211-.454 1.987-.543 2.352-.068.5-.098 1.142-.098 1.941h.641c0 .556-.103 1.122-.314 1.711-.229.565-.327 1.175-.327 1.816h.641l-.314 8.682.866.218v.856c-.085.709-.157 1.139-.216 1.285l-.65.332c0 .353.069.602.211.741.137.137.297.293.439.43.059.435.104 1.119.104 2.033 0 .788-.025 1.488-.053 2.097-.051.606-.051 1.123-.051 1.549h-.65c0 .443.069.763.211.973.137.143.297.285.439.426.131 1 .216 1.788.216 2.367 0 .855-.044 1.776-.112 2.775a50.045 50.045 0 00-.104 1.723 2.55 2.55 0 00-.537.219c.279.996.456 1.541.537 1.61h-.65V75.4h.65v1.281h.639c.138.501.201 1.25.201 2.249 0 .645-.063 1.614-.201 2.903-.15 1.286-.211 2.281-.211 3 0 .417.061 1.056.211 1.928h.525v2.043zm90.82-80.202c-.15 0-.289-.044-.43-.11.069-.218.208-.32.43-.32v.43zm-.317-6.542a3.182 3.182 0 01-.543-.228c.14-.553.324-.89.543-.959.072.152.142.284.211.436 0 .132-.069.386-.211.751m-1.072-.649l-.539 1.185h-.747l.966-.874c-.219-.198-.325-.343-.325-.413 0-.152.024-.284.106-.436.144 0 .243.069.324.227.078.209.13.311.215.311m-4.19-1.39a5.8 5.8 0 01-.209.535.742.742 0 01-.106-.329c0-.206.106-.264.315-.206m1.72 97.036h-2.685v-.86h.327v-.219c.349.08.751.141 1.184.219 0-.858.079-1.401.218-1.608l.632.307c.139 1.082.255 1.796.324 2.161m-3.437-92.322l-.204 4.182c.14.22.204.395.204.537.165.436.226.779.226 1.064 0 .513-.226.689-.659.539l-.523-1.078c.139-.133.281-.348.43-.641a.322.322 0 01-.23-.104.841.841 0 00-.089-.317c-.225.076-.41.076-.542 0 .358-.5.5-.893.431-1.184l-1.178-.85v-.434c-.796.083-1.366.083-1.724 0l-1.386-.741 2.453-.442 2.358-.531h.433zm-7.938 73.126h.43c-.211-.285-.43-.46-.639-.535l.209.535zm.869-54.263c-.157.229-.211.368-.211.439-.15.277-.29.462-.439.53-.632-.068-1-.068-1.069 0v.543c0 .066.044.105.113.105a23.942 23.942 0 011.279-.105c.143-.297.258-.499.327-.65v-.862zm-2.034 48.58c.137 0 .315-.039.516-.111a.946.946 0 00-.516-.427v.538zm1.165-3.324c-.271-.28-.561-.573-.85-.865l-.315 1.193h1.384a2.327 2.327 0 01-.219-.328m-.85-39.249h.641c0-.284-.317-.503-.956-.631l.315.631zm0-.851c.358-.065.543-.258.543-.535 0-.293-.288-.434-.858-.434l.315.969zm-.966 30.874c.071-.289.115-.465.115-.527-.088-.068-.299-.068-.641 0v.313c.072 0 .239.074.526.214m-.526-27.01a5.333 5.333 0 00-.323.956c.211-.287.323-.455.323-.541v-.415zm0-9.336l-.323.641c.64 0 .992-.096 1.06-.325a2.003 2.003 0 01-.737-.316m-.761 2.148c.287 0 .577-.039.86-.105-.071-.215-.352-.395-.86-.533v.638zm0 27.23c.438.15.676.15.761 0 .072-.284-.253-.465-.965-.53l.204.53zm1.287-9.216c-.359-.071-.526-.21-.526-.43v-.855h-.761c-.064.075.078.351.438.855-.222 0-.404.113-.554.315-.054.159-.088.255-.088.33l1.491-.215zm-1.491-2.139c.553 0 .853-.107.853-.331-.3-.203-.571-.319-.853-.319v.65zm.204-3.329l-.204.639c.491 0 .781-.108.853-.32a2.842 2.842 0 01-.649-.319m.438 44.703v-1.494l-1.185-.752.543 2.04c.204.066.42.14.642.206m.323-12.864l-.323-1.293c-.731.087-1.116.087-1.185 0v1.293h1.508zm-1.307 4.19c.229-.423.342-.679.342-.754a3.273 3.273 0 01-.543-.215c-.209.357-.324.576-.324.646 0 .214.174.323.525.323m-.525-39.891c.577.143.867 0 .867-.422 0-.298-.403-.447-1.182-.447l.315.869zm.324 19.721c0-.138.035-.272.096-.425-.918-.065-1.491-.099-1.699-.099l.75.963.853-.439zm-.639-1.705c-.07-.073-.114-.137-.114-.215.07-.292-.069-.434-.43-.434l-.42 1.179c.35-.069.706-.139 1.067-.22-.068-.064-.103-.164-.103-.31m.84-11.049c-.201-.788-.201-1.21 0-1.289l-.525-.21c-.573.147-1 .428-1.279.862h.75v-.332h.214c.139.372.43.692.84.969m-1.804 31.425c.139-.147.324-.328.535-.543-.071-.137-.327-.18-.757-.109.072.213.132.428.222.652m0-28.423c.208-.284.324-.454.324-.525a1.19 1.19 0 01-.546-.114c.072.215.132.428.222.639m0-2.778c.208-.296.324-.474.324-.534-.229 0-.414-.047-.546-.116.072.211.132.426.222.65m2.788 23.58l-3.334-.213.546.863c.279.073.822.073 1.603 0h.543c.14 0 .282-.044.42-.122.071-.283.133-.443.222-.528m-3.01-49.315l-.324.524c.43-.064.685-.168.754-.323-.141-.066-.298-.141-.43-.201m.222 1.713v-.324c0-.215-.185-.289-.546-.215-.078.074-.142.103-.212.103.07 0 .327.146.758.436m-.222 58.438v-.653c-.139-.062-.351-.107-.639-.107v.76h.639zm2.368-13.524c0-.138.034-.28.088-.425-.348-.074-1.27-.105-2.78-.105l-.315.53c.147.164.43.247.861.32v.659l2.146-.979zm-2.692 18.988a1.41 1.41 0 01-.103-.421c0-.22-.176-.331-.539-.331v.752h.642zm0-9.545c0-.861-.103-1.282-.315-1.282l-.327.969c.224.135.43.249.642.313m1.296-12.012c.214 0 .317-.039.317-.11a1.507 1.507 0 01-.317-.417c-.935.062-1.689.062-2.261 0l.323.527.966-.316.642.96c.07-.214.173-.424.33-.644m-1.611-7.287c-.218-.146-.43-.284-.65-.426v.426h.65zm-.327-17.588c.224 0 .474-.023.757-.105 0-.276-.371-.456-1.08-.534l.323.639zm-.323 45.253a1.9 1.9 0 00.547-.107c0-.35-.258-.64-.756-.854l.209.961zm5.148-48.04v-.537l-.849-.32c-1.01-.134-1.789-.25-2.368-.314v-.76c.361-.061.647-.206.859-.43l.324-1.166c.711-.146 1.209-.245 1.508-.328h-1.508l.543-1.709c-.226-.077-.508-.19-.867-.331v-.641c.071-.433.115-.754.115-.97 0-.494-.044-.778-.115-.862l-1.825-.525c.361 1.073.546 1.637.546 1.719 0 .275-.185.599-.546.96.572 0 .928.113 1.081.319a7.49 7.49 0 01-.757.331v.52c.501 0 .757.083.757.222.058.283-.293.717-1.081 1.295.572 0 1.081.105 1.51.315v.636h-.964c-.09.298-.116.535-.116.758-.132.43-.508.647-1.072.647l-.532-.327v.641c.068.347.112.606.112.759 0 .066.028.254.097.52.797.23 1.326.16 1.606-.205.229-.217.44-.468.655-.754.283.286.458.473.529.537h2.358zm-3.637 46.224v-.553h-.546c.141-.061.229-.311.229-.74-.088-.502-.168-.759-.229-.759l-1.815 1.188v.535h.641c.14.285.317.53.532.75l1.188-.421zm-1.188-22.74c-.348-.499-.75-.758-1.173-.758v1.072c.351-.06.753-.173 1.173-.314m-.532-6.643a.46.46 0 01-.113-.325c0-.137-.177-.215-.528-.215v.54h.641zm1.498 20.375h-1.812a2.07 2.07 0 01-.546.102c.219.071.884.245 2.034.531l.324-.633zm-2.682-5.266c.141-.07.298-.13.427-.201-.129-.29-.286-.468-.427-.539v.74zm2.358-18.981l-2.358-.311v1.819c.071.218.185.394.324.532.642-.646 1.324-1.317 2.034-2.04m-2.034-18.864c.069 0 .131-.035.219-.104-.219-.215-.402-.386-.543-.537l.324.641zm2.358 6.547h-3.638l.641.956c.858.286 1.928.118 3.219-.541-.09-.129-.15-.275-.222-.415m-2.682-16.524a4 4 0 00.543.444c-.15.132-.657.28-1.499.421 0-.728.219-1.072.641-1.072h.201c0 .069.043.143.114.207m-.642 73.777v-.434c0-.208-.095-.281-.314-.208-.14.142-.22.251-.22.318.08.14.258.255.534.324m1.185-8.686c-.15-.08-.15-.176 0-.334-.088.085-.15.124-.219.124v-.542h-1.5v2.246c.508-.14.791-.245.861-.305.201-.224.201-.413 0-.541a2.752 2.752 0 01-.641-.333l1.499-.315zm.327-28.844l-.327-.426h-1.719v.426h2.046zm-2.476-11.036c.139 0 .324-.035.544-.107-.088-.224-.263-.394-.544-.543v.65zm0 44.492a.98.98 0 00.43.092c-.291.158-.536.303-.752.434.078-.131.182-.315.322-.526m1.291-36.775c-.149-.431-.255-.677-.327-.755h-.314l-.972-.314.972.854c-.078.43-.078.748 0 .963.288-.076.455-.117.543-.117.342-.128.379-.347.098-.631m-1.291-32.928c.139.077.139.19 0 .331-.14.143-.244.245-.322.319.078-.206.182-.434.322-.65m-.544 29.393c.361 0 .544-.144.544-.438 0-.277-.183-.425-.544-.425v.863zm.222-25.529l-.222.969c.73-.153 1.054-.39.974-.754-.069-.215-.315-.288-.752-.215m.322 35.492v-.43c-.209-.146-.508-.245-.861-.328l.317 1.072c.222 0 .404-.095.544-.314m4.288 29.913v-1.495c-.492-.065-1-.18-1.498-.331l-1.184.537c-.071.083-.13.259-.202.543 0 .075-.044.216-.113.427-.51.073-.93.185-1.291.319l-.544-1.289-.317 1.723c-.075.359-.139.681-.218.965.079.354.44.749 1.079 1.167.65.434 1.077.718 1.291.875 0-.078.042-.191.113-.332.072 0 .246-.04.526-.109a8.874 8.874 0 01-1.061-.745c-.088-.08-.158-.141-.219-.221a.285.285 0 01.219-.101c.422-.147.85-.328 1.28-.534v-.439c-.088-.434-.15-.852-.219-1.279l.86-.755c.068-.075.209-.102.429-.102.151 0 .376-.03.745-.113-.212.286-.315.504-.315.648-.078.43.147.641.639.641m-5.796-34.522c.217-.364.333-.575.333-.644a3.031 3.031 0 01-.542-.21c-.283.078-.386.21-.317.425.07.22.245.358.526.429m1.186-4.718h-1.395l-.641 1.176c.142.358.281.683.437.968l.204 1.18 1.173.323c.072-.138.185-.279.335-.439-.15-.134-.57-.423-1.299-.849v-1.183h.964l.222-1.176zm-1.395 6.971c.209 0 .426-.034.638-.099-.061-.229-.341-.719-.842-1.514h-.437c.142.142.113.325-.114.539-.064.076-.139.11-.201.11l.956.211v.753zm0 33.449v-1.18l-1.187-.319c0 .138.046.298.115.427.291.063.573.185.868.326-.226.145-.324.277-.324.432 0 .211.168.314.528.314m-.641-65.936a1.665 1.665 0 01-.546-.324c.092-.369.255-.53.546-.53v.854zm-3.219 27.66c.079.078.157.145.219.215-.062 0-.245.109-.526.325v-.435c0-.061.086-.105.307-.105m.649 5.044c-.147-.076-.172-.183-.106-.316-.157.065-.255.099-.324.099-.778.501-1.253.824-1.395.969.142.065.282.147.413.211l.456-.64h1.062c.064-.157.031-.254-.106-.323m.747-1.83v-.64a49.172 49.172 0 01-3.211-.529v.643c0 .491.096.825.315.96.142.078.248.078.324 0v-.434c.58.21 1.037.325 1.395.325.43 0 .825-.115 1.177-.325m-2.358 35.711c-.44-.43-.922-.649-1.494-.649l1.494.649zm2.358-37.745c0-.28-.187-.495-.536-.64.07-.65.116-1.216.116-1.719 0-.645-.116-1.073-.327-1.284h-.649l-1.815-.637-.437.956c-.634 0-.965.113-.965.32l.542.532a5.684 5.684 0 011.335-.314c.542-.078.982-.138 1.34-.218v1.079c-.221.135-.454.25-.763.315-.413.075-.664.116-.737.116 0 .499-.14.897-.43 1.172.142.141.29.262.43.322.073 0 .412.044 1.029.108.594.077 1.041.139 1.331.215-.074-.076-.105-.138-.105-.215.064 0 .289-.03.641-.108m-4.395-33.353c.211.077.29.19.211.331-.078.143-.238.245-.535.319v-.65h.324zm3.859-1.165v.426c-.703.062-1.396.14-2.036.215v.74l-1.499-.423-.324.207-.324-1.165c.57 0 1.225-.049 1.983-.114.744-.06 1.201-.118 1.34-.118.288.088.57.157.86.232m-4.507-2.688c.069 0 .14-.039.229-.114-.229-.279-.404-.425-.546-.425l.317.539zm1.832 77.63l-2.36-.224c.139.224.211.378.211.43.211.355.317.575.317.648.648.149 1.122.247 1.395.322.138-.361.278-.759.437-1.176m-2.149-73.127l-.211 1.61c-.578-.499-.799-.869-.639-1.071l.85-.539zm-.211 2.683c-.428-.082-.823-.177-1.182-.327.061-.066.174-.167.314-.316.509 0 .801.209.868.643m-.868 27.548a.379.379 0 00.229-.097c-.16-.295-.369-.435-.66-.435l.431.532zm-.431-33.874a4.57 4.57 0 01.319-.54c.157-.213.287-.434.429-.64a2.73 2.73 0 00-1.053-.219l.305 1.399zm2.151 35.921l-.324-.755h-.956l.428.54c-.227.215-.428.43-.639.64l-.229-.64c-.068 0-.14-.044-.199-.109-.167 0-.51.039-1.08.109v1.18c1.647 0 2.569-.036 2.788-.105.071-.3.14-.576.211-.86m-4.805 37.301c-.169-.131-.238-.249-.238-.315.069-.066.15-.145.238-.211.404 0 .622.066.622.211 0 .221-.218.315-.622.315m0-3.644c.342 0 .518.078.518.212-.063.442-.353.758-.869.977-.129-.288-.201-.478-.201-.535-.072-.442.113-.654.552-.654m1.165-26.695c.069.076.139.146.211.219a6.95 6.95 0 00-.43.526c-.351.077-.805 0-1.323-.2-.554-.221-.861-.326-.932-.326l.958-1.076 1.297.323.219.534zm-3.228-20.367c-.201-.141-.314-.259-.314-.324.062-.218.174-.313.314-.313.3.067.439.171.439.313 0 .293-.139.398-.439.324m1.3 12.336c-.158-.086-.361-.331-.659-.757a9.705 9.705 0 00-.413-.753h-.869c.08.284.221.532.44.753.061.077.13.103.201.103a8.35 8.35 0 00-.314 1.183l1.614-.529zm-1.614-28.745c.49-.138.753-.753.753-1.81v-.439c-.139-.215-.51-.215-1.08 0v.654c.08.56.186 1.087.327 1.595m19.081-1.925V15.57c-.85-.215-1.507-.325-1.922-.325-.716.079-1.365.11-1.938.11l.317.955-1.377.434c.063.215.132.396.204.539l-.204 1.29v.635c-.798-.138-1.457-.314-1.999-.534a4.32 4.32 0 00-1.657-.32l-.307.43c.784.209 1.167.364 1.167.424.438.361.642.649.642.865 0 .276-.249.422-.747.422a7.082 7.082 0 01-.536-.212 45.316 45.316 0 01-2.034-.426c-.299-.078-.894-.288-1.832-.649v-.635h.648v-.855c1-.295 1.991-.435 2.999-.435h.649c.351-.223.56-.504.649-.858 0-.499.026-1.008.098-1.496.356.075.673-.114.962-.539-.348-.078-.719-.14-1.06-.215-.438-.143-.796-.184-1.079-.118-.498.435-.894.64-1.181.64l-1.29-1.065.752-.212-.315-.534-1.832-.425-.317.959a17.22 17.22 0 011.289-.319l.219 1.289c-.796-.358-1.297-.47-1.508-.333l-.211.64c-.428.157-.823.307-1.182.437-.081.283-.21.753-.422 1.404-.229.631-.324 1.025-.324 1.18v.636c-.361 0-.721-.215-1.079-.636l-.946.206v.649l2.025.211v1.174c-.291.649-.588 1.286-.86 1.935-.07.288 0 .952.211 1.977.219 1.048.288 1.766.219 2.201a2.3 2.3 0 00-.43.331c-.297.202-.475.38-.543.52h.973l-.43.863c-1-.219-1.645-.319-1.928-.319-.291 0-.931.1-1.941.319a.99.99 0 00.106.434c.142 0 .334.074.535.22-.071.352-.095.57-.095.633-.069.16-.157.249-.219.318.062.298.428.506 1.068.645l-.212.76-.542.314c.15.288.228.5.228.64a4.6 4.6 0 001.072.119c.211.066.675.254 1.385.52v-.639l-1.174-.32v-.428c0-.142.072-.206.201-.206l.973.634v-.634a23.165 23.165 0 01-.622-.647c-.088-.223-.204-.46-.351-.758h-.412v-.636c-.072-.065-.116-.144-.116-.21.139 0 .327-.048.528-.105l.351.951c.2.074.404 0 .622-.206.287-.21.473-.362.543-.43.36.636.569 1.075.641 1.281l-.211 2.904-.649.306a45.79 45.79 0 00.322 3.285c.142 1.025.213 2.085.213 3.16 0 1.141-.177 2.61-.535 4.393l.86.541c.219.065.57.104 1.08.104.567 0 1.489-.104 2.786-.319 1.28-.224 2.098-.326 2.456-.326l2.358-.424v-.645c.721.142 1.142.142 1.298 0v-.855c0-.289.115-.675.361-1.185.245-.49.481-.964.699-1.392.153-.567.291-1.68.433-3.32.14-1.64.288-3.358.428-5.153l1.291.32c.281-.218.567-.428.858-.634-.15-.286-.219-.506-.219-.647-.139-.434-.139-.684 0-.758-.211-.127-.639-.24-1.28-.318-.22 0-.535-.038-.972-.098a13.029 13.029 0 01-.317-1.83c-.069-.639-.113-1.108-.113-1.392 0-.508.069-.822.208-.96l-1.173-.646v-1.395a22.302 22.302 0 01-1.713-1.187c.062-.712.062-1.249 0-1.606.15.357.327.684.526.969.432.067.904.141 1.396.201l.429-1.701h.757v-1.073c.278.069.508.101.646.101.712.157 1.152.185 1.282.118l.543-1.29h.85zm-16.409 50.706h-1.058l.412-.951-1.17-.538c.283-.29.441-.677.441-1.19 0-.499-.088-.894-.229-1.187h.958c.147-.207.226-.376.226-.526 0-.07.037-.211.125-.421-1.377-.295-2.158-.501-2.377-.659.15.158.219.364.219.659 0 .28.024.539.095.74h-.314c.15.369.314.614.542.756v.324a.283.283 0 01-.228-.111h-.963v.65c.508 0 .762.136.762.425-.219.65-.36 1.111-.44 1.4.363.057.614.094.755.094.212 0 .361.12.428.325v1.075c.283 0 .573-.039.871-.116-.09.159-.474.292-1.185.444v.956c1.072-.209 1.666-.323 1.835-.323.2-.062.295-.311.295-.75v-1.076zm-2.672-54.357c.062-.358.113-.561.113-.633-.077-.143-.219-.182-.44-.113-.209.074-.322.142-.322.215.219.354.428.531.649.531m2.672 30.027h-1.816c.212-.286.467-.572.758-.865-.861-.055-1.395-.15-1.614-.21v-1.279c-.43-.142-.816-.224-1.177-.224 0 .362.214.474.641.327.209-.069.289-.327.209-.753a5.226 5.226 0 01-.322-.965c.297-.065.621-.249.963-.529.228-.356.475-.75.754-1.185a1.822 1.822 0 011.071.108c-.071.073-.175.571-.314 1.498.139.073.287.147.427.21-.079.152-.14.244-.226.32-.343-.216-.845-.383-1.484-.53l-.228 1.073h.754c-.068.354-.14.684-.212.961l1.816.543v1.5zm-3.532 31.302c.069.072.139.155.211.21a2.372 2.372 0 01-.641.335v-.438c0-.062.14-.107.43-.107m2.474-25.191h-.758c-.286-.138-.471-.245-.542-.323-.201-.141-.42-.141-.641 0l.641 1.185c-.769.349-1.316.92-1.604 1.709h1.29l-.327-.86h.869c.502-.935.85-1.494 1.072-1.711m-2.474 23.481c.069-.367.113-.574.113-.639-.069-.228-.255-.253-.543-.106-.068.287-.114.466-.114.53.087.29.254.357.544.215m0 13.941c-.062-.076-.103-.15-.103-.224.069-.275-.098-.425-.539-.425v.649h.642zm1.174-30.463l-1.604.224h-.212v-.224c.144-.2.256-.35.325-.421.361-.363.641-.544.85-.544.221-.06.363 0 .44.22.061.438.13.688.201.745m-.314 32.268v-1.068h-1.816c.412.434.814.718 1.167.875v.425c.157.066.255.032.322-.117.08-.141.186-.18.327-.115m-.327-8.779c.14-.568.036-.858-.322-.858l-.853.32c-.149.146-.245.254-.314.326.853.143 1.361.212 1.489.212m2.999-8.364c0-.141.047-.316.109-.527-.642-.433-1.389-.657-2.239-.657l-.228.657h-1.174a3.77 3.77 0 01-.956-.329v.856h2.358l.526.858h.958l.646-.858zm-3.962-1.496c.499 0 .72-.22.641-.649-.142-.205-.353-.312-.641-.312-.361.487-.526.784-.526.852.138.074.314.109.526.109m3.316 7.279c.379-.275.403-.539.113-.74-.201-.15-.569-.247-1.071-.317l-1.068.746-2.044-.429c.068.504.16.74.228.74l-.228 1.18h3.658c.139-.068.252-.28.324-.627 0-.083.026-.259.088-.553m-3.842-11.466l-.228.867c.428-.078.686-.22.754-.428a3.713 3.713 0 01-.526-.439m.956-2.255l-.43-.96v-.759l-.526-.21c-.228.43-.326.723-.326.86.071.285.166.4.326.329l-.228 1.286 1.184-.546zm-.43-30.977c-.28.21-.638.718-1.052 1.507a1.2 1.2 0 00.298.534c.798-.938 1.228-1.542 1.297-1.831a6.528 6.528 0 01-.543-.21m0 13.722c-.501-.218-.897-.4-1.166-.538.269.138.377.473.263 1.021-.114.526-.2.969-.263 1.338.341.281.665.426.954.426.441 0 .642-.317.642-.955 0-.499-.142-.934-.43-1.292m3.115-10.72c-.283-.583-.369-1.122-.211-1.621h-2.904c.499.223.754.499.754.867 0 .36-.324.615-.966.754a.453.453 0 01-.314-.109c-.16-.215-.371-.285-.64-.215v.856c.201-.072.341-.03.412.105.16.222.315.279.542.222.212-.222.352-.357.441-.446.27-.267.525-.413.734-.413l.641.532c.228.302.228.499 0 .643-.42.151-.806.25-1.174.313v.762c-.361.272-.676.526-.956.751.342.073.666.073.956 0l2.685-3.001zm-2.685-6.336c.29.083.405-.03.324-.314-.142-.5-.255-.908-.324-1.18-.931-.137-1.457-.25-1.596-.326.063.508.139 1.006.201 1.506.068.143.526.242 1.395.314m-.642-17.364c.072-.354-.245-.539-.954-.539l.954.539zm19.733 63.265c-.088-.081-.15-.36-.219-.864-.57-.359-.853-.637-.853-.85.144-.36.214-.908.214-1.614a.875.875 0 01-.422-.111 4.562 4.562 0 01-.219-.74c.219-.148.314-.548.314-1.189-.209.077-.314-.035-.314-.323.131-.633.26-1.347.376-2.149.108-.771.167-1.456.167-2.034 0-.282-.059-.833-.167-1.661-.116-.818-.322-1.554-.648-2.199-.324-.639-.561-1.134-.7-1.5-.072-.284 0-.569.216-.858.221-.351.245-.628.106-.85l-1.079-.216c-.287-.798-.498-1.254-.638-1.395-.072-.062-.386-.062-.956 0-.43-.424-.809-.75-1.071-.969-.58-.495-1.122-.82-1.676-.964-.542-.146-1.453-.228-2.78-.268a101.83 101.83 0 00-2.42-.06v-.418c.44-.064.801-.211 1.079-.439l-.85-.524a9.9 9.9 0 01-.965.323c-.229.063-.359-.071-.427-.433a3.18 3.18 0 01-.116-.86c.788.28 1.324.425 1.596.425.298 0 .762-.21 1.403-.636h.867l-.219-1.289c-1 .14-1.727.216-2.139.216-.508 0-.938-.076-1.289-.216l-.43-.209v.849l-.973.86.973.753a3.225 3.225 0 00-.327.54c-.217.494-.243.777-.103.855h-.543a4.26 4.26 0 01.324-.855l-1.498-.974c-.369-.139-.712-.22-1.072-.22-.139 0-.211.081-.211.22v.651c-.368.421-.542.752-.542.963h1.068l.757.853c-.87-.217-1.474-.322-1.825-.322-.492 0-1.177.105-2.044.322l.228.857c-.228-.074-.326 0-.326.219 0 .155.027.469.098.961h.754v.641c-.852.784-1.282 1.358-1.282 1.713.275.729.528 1.43.756 2.149h1.167v-.639c.157-.282.462-.364.963-.212.15.425.228.711.228.851h1.072l.211-1.075c-.941-.139-1.511-.238-1.712-.32.061-.14.13-.284.201-.424l1.3-.22c.069-.066.139-.14.211-.214-.283-.128-.897-.215-1.825-.215-.649.087-1.061.113-1.29.113-.068-.723.14-1.037.641-.964.157-.505.255-.798.322-.858.363-.215.941-.326 1.719-.326h1.931c.219 1.508.43 3.001.649 4.503a.669.669 0 01-.327.32c-.285.154-.4.33-.322.53h.649v3.336l-.649.318c0 .288.219.573.649.867 0 .416-.07 1.276-.219 2.562-.142 1.294-.211 2.155-.211 2.578v.534c.069.146.211.146.43 0a5.39 5.39 0 00-.327 1.08c-.059.491.036.784.327.85.069.645.069 1.149 0 1.496l-.973.442v.632c.068.15.184.298.324.425v1.18c-.14 0-.29.087-.428.228a1.171 1.171 0 01-.223.315c-.13 0-.295-.04-.533-.101-.342-.214-.71-.29-1.071-.214-.212.351-.385.57-.526.635l.314.538 2.686-.212h.316c0 .07.044.212.114.427-.291.072-.544.142-.755.212.069.433.394.933.966 1.505l1.508.741 7.487-.418V81.5h.983l.204-.525a.52.52 0 01.638 0c.3.13.457.21.535.21.072-.356.072-.61 0-.752a1.75 1.75 0 01-.317-.427l1.291-.646c.08-.14 0-.315-.217-.543a4.127 4.127 0 01-.213-.206c.213-.146.387-.589.544-1.334.144-.754.281-1.456.42-2.106a5.77 5.77 0 001.185.335m-14.689-30.019v-.552h-4.191v-1.491c-.211.069-.412.14-.641.215L193 43.444c.412.069.528.394.314.965-.077.215-.288.68-.656 1.395.798-.067 1.577-.18 2.368-.317.649 0 1.385.215 2.255.636h.552l1.165-.636zM193 42.159l-.342.635c.579-.055.982-.094 1.182-.094.212 0 .51-.056.869-.116a11.031 11.031 0 00-1.709-.425m2.129-10.193l-.322-1.498h-.853l-1.296 1.281c.501.298.754.51.754.639.366-.341.614-.486.754-.422h.963zm-2.471-17.909c.456 0 .656-.137.656-.425 0-.358-.2-.531-.656-.531v.956zm11.051 69.811c-.774 0-1.589-.025-2.412-.048-.818-.049-1.589-.202-2.299-.487-.297-.29-.509-.503-.647-.654-.063-.066-.258-.245-.518-.529-.948.143-1.624.25-2.063.323V81.5h1.511c.139.148.314.259.552.333l.295-.648h-3.321c-.142-.08-.353-.141-.641-.21-.212-.366-.388-.542-.526-.542l-.228.752c-.273 0-.528.114-.754.315.938 0 1.648.104 2.149.333v.846c-.412-.066-.825-.14-1.167-.206a.351.351 0 01-.228.1c-.491.362-.806.615-.966.76v1.178c.438.211 1.01.322 1.72.322l.43-.759c-.361.14-.614.14-.756 0a9.465 9.465 0 001.289-.741v.956c.14.152.44.152.869 0l.314.544c-.067 1.645-.067 2.819 0 3.53h1.816l-1.058-1.601c.412.28.675.43.763.43.26-.15.595-.278.946-.43l1.079.964c.569-.284.948-.455 1.176-.534.201-.15.461-.278.752-.43l-.428-.754a35.143 35.143 0 012.351-2.14m-7.711-57.466c-.57.202-1.034.275-1.402.202l-.43-.533c.499-.143.754-.391.754-.746 0-.149-.034-.215-.113-.215-.211-.069-.501-.069-.853 0-1.07.281-1.603.684-1.603 1.18 0 .36.031.606.095.741.072.079.16.113.212.113a46.05 46.05 0 001.508-.222c.14 0 .255.083.327.222.285.352.611.51.963.422l.314-.644c.15 0 .228-.167.228-.52m2.781 47.81v-.42h-2.467c-.216.42-.314.714-.314.85-.157-.066-.542-.136-1.191-.207-.641-.083-1.029-.152-1.167-.223h-1.395c.062.14.137.294.201.43.359.141.868.645 1.508 1.496h3.116c.638-.347.963-.597.963-.738-.369-.152-.68-.229-.963-.229v-.959h1.709zm-6.333 4.605c.16-.28.212-.455.212-.528.085-.358-.098-.508-.526-.428-.282.07-.369.215-.211.428.141.219.324.396.525.528m-.314-25.723c0-.503-.116-.753-.324-.753l.324.753zm0-3.107c-.14-.08-.184-.217-.116-.432.074-.358-.068-.533-.422-.533v.965h.538zm0-3.012c-.14-.072-.184-.207-.116-.422 0-.085-.139-.11-.422-.11v.532h.538zm-.965-25.411l-.211.872v.526c.57-.211.852-.649.852-1.293 0-.425-.214-.675-.641-.742v.637zm0-7.932c.071-.358 0-.531-.211-.531l.211.531zm.427 75.597c.074-.713-.243-1.011-.962-.866a.93.93 0 00.115.441c.14.063.42.193.847.425m-.962-14.268c-.143-.499-.247-.749-.335-.749.088.294.192.54.335.749m0-4.823c-.143-.495-.247-.741-.335-.741.088.285.192.532.335.741m1.5-19.297h-1.5l-.335.64c.221.142.73.299 1.511.434.069-.135.184-.292.324-.434v-.64zm-1.835-7.827c.088-.06.157-.176.221-.314-.133 0-.27-.056-.43-.116l.209.43zm2.149 23.804l-2.672-.318 1.182 1.489h1.176c-.14-.068-.14-.276 0-.629 0-.077.113-.245.314-.542m-.852-6.002a12.02 12.02 0 00-.427-1.188h-1.393c.069.22.358.43.858.644v1.177c.49-.131.805-.208.962-.208v-.425zm-1.82-2.252c.499-.357.744-.686.744-.97 0-.22-.245-.357-.744-.43v1.4zm2.034-17.483c-.371-.215-.712-.357-1.061-.426a6.35 6.35 0 01-.973-.211v.211c.069.149.358.289.858.426v.535c.49.149.894-.044 1.176-.535m-.214 14.369c-.498-.15-.751-.355-.751-.645 0-.281-.062-.595-.211-.97h-.544c-.132.576-.289 1.116-.43 1.615 0 .289.332.46.974.534.289-.074.464-.104.535-.104v-.116h.535c-.068-.06-.108-.173-.108-.314m-1.297 20.688c0-.632-.049-.967-.209-.967-.43 0-.641.155-.641.435.143.37.44.532.85.532m0-47.384c.088-.428.113-.72.113-.867 0-.206-.113-.321-.322-.321l-.744.545c-.142.14-.184.249-.096.328.342.135.708.25 1.049.315m-.953 32.062l-.212.633c.414-.058.711-.131.858-.208.064-.069.142-.138.214-.213-.361-.141-.658-.212-.86-.212m.953-15.649c-.707.276-1.049.57-1.049.848 0 .568-.046.888-.116.96h.956c.209-.422.43-.891.659-1.381.061-.365-.079-.505-.45-.427m-.953 37.306c.146-.425-.037-.64-.526-.64l.526.64zm0-56.402c.288-.49.43-.785.43-.856-.228 0-.43-.039-.642-.105l-.314.642.526.319zm.43 27.023c-.43-.146-.825-.284-1.176-.434v.651l.746.323c.288 0 .43-.183.43-.54m2.034 23.803l-.852-.317c-.571.93-1.366 1.455-2.358 1.61a.8.8 0 00-.106.421c0 .074.106.206.326.434l2.349-.228.427-1.18c.074-.202.143-.456.214-.74m7.19-63.477c-.14-.215-.219-.349-.219-.421-.14-.224-.351-.258-.651-.113l-3.321 2.043-.211.958-.642-.317.212-1.18c-.71 0-1.31.029-1.815.102-.501.064-.975.138-1.395.205h-.659a9.522 9.522 0 01-.953-.64l-.212 1.298c.573-.295.956-.426 1.165-.426l-.209.958h-.956v1.396h1.165v1.071h-.953c-.282.143-.57.286-.852.43.061.424.282.643.64.643.5.073 1.165-.151 2.035-.643v-1.825a.97.97 0 01-.535-.649c.35 0 .535-.079.535-.216l.641-1.165.85 1.165c.456-.279.87-.35 1.296-.207v.857c-.795.215-1.296.396-1.508.539.297.14.475.246.554.33.139.135.139.242 0 .311l1.166-.206V16.31h.641l.322-.216c.44-.064.897-.138 1.395-.207v-.958c.502 0 .87.101 1.071.316-.071.14-.113.25-.113.325.379.06.551-.185.551-.755 0-.719-.172-1.102-.551-1.183l1.516-.212zm-7.404 15.97l-2.25.215-.212 1.504c-.579.141-.859.435-.859.857 0 .507.359.652 1.071.422v-.959c.86-.131 1.403-.244 1.612-.32a3.807 3.807 0 01-.324-.849l2.139-.87h-1.177zm-2.776 38.389c0-.496-.22-.741-.65-.741l.65.741zm2.99-3.656l-1.176-.207c-.08-.07-.974 0-2.683.207 0 .377.059.549.219.549v1.181h.65c.2-.143.384-.388.526-.748v-.433c.288-.076.683-.115 1.174-.115.369.074.72.115 1.076.115l.214-.549zm-2.676-5.022l-.964-.753.43.964c-.649.066-.904.277-.755.637.078.298.325.405.755.323l.534-1.171zm1.824-19.94c.071-.571.071-.935 0-1.077-.148-.222-.683-.336-1.612-.336l-.212.867h-1.404c.142.142.28.251.44.327l-.219 1.17c.719.159 1.183.159 1.395 0v-1.17c.788.133 1.324.219 1.612.219m.638 46.202h-1.297c-.209-.074-.523-.435-.953-1.074l-.526-.215c.2-.352.342-.601.43-.741a1.723 1.723 0 01-.116-.654c-.149.078-.314.466-.534 1.189a4.752 4.752 0 01-.963.101c.137.295.533.579 1.183.864.131.509.244.823.314.964l2.035.211.427-.645zm0-12.327c-.068-.064-.157-.243-.218-.53-.079-.367-.138-.652-.209-.866l-2.349-.313-.22.527h-.963v.652l1.497.745v-1.073l.956-.324.209 1.182h1.297zm-3.645-30.877c.219.075.464.102.755.102-.072-.216-.431-.737-1.069-1.606.137.211.235.571.314 1.071v.433zm-.314 32.802c.208 0 .461-.035.752-.095-.291-.431-.659-.716-1.089-.861l.337.956zm39.013 1.177l-.64.759c-.143 1.138-.211 1.964-.211 2.463v1.939c0 .925-.069 1.592-.216 2.034l-.42.204v1.296l-3.869 5.892c-.141.075-.458.075-.956 0-.368.576-.695 1.001-.973 1.29-.562.211-1.135.421-1.712.643l-2.464 1.394c-.218 0-.395-.172-.542-.537a.476.476 0 01-.108-.317h-2.569l-1.291.54c-.43.07-1.121.107-2.085.146-.974.048-1.845.087-2.631.168-.221 0-.454-.042-.763-.108-.982-.293-1.56-.429-1.693-.429l-.219.537a21.966 21.966 0 00-3.763-.314c-1.638 0-3.112.102-4.394.314-.636-.212-1.031-.314-1.175-.314-.795.07-1.864.102-3.207.102-.86 0-1.729-.024-2.579-.058-.87-.03-1.755-.044-2.675-.044-.077-.289-.157-.582-.219-.867l.42-.213c0-.643-.034-1.405-.113-2.304a30.708 30.708 0 01-.088-1.991c0-.493.061-1.247.201-2.246.14-1 .229-1.784.229-2.365 0-.362-.089-.888-.229-1.602l.757-.317c.068-.789.014-1.487-.17-2.093a25.869 25.869 0 00-.587-1.879c0-.71.098-1.466.265-2.255.182-.784.278-1.323.278-1.601l-.744-2.678c0-.505.167-1.618.526-3.338.139-.706.218-1.323.218-1.818-.499-1.36-.744-2.255-.744-2.675 0-2.652.245-5.083.744-7.293v-1.076c0-.137-.148-1.292-.427-3.436-.291-2.136-.394-3.38-.317-3.738l.744-1.292c-.288-.078-.543-.138-.744-.218 0-1 .026-2.034.088-3.114.079-1.068.157-2.131.229-3.217 0-.852-.035-1.497-.116-1.921-.062-1.075-.14-2.14-.201-3.211.139-.227.245-.406.317-.534.279-.586.427-.979.427-1.201 0-.212-.123-.82-.363-1.869-.265-1.025-.381-1.912-.381-2.622l.744-2.352-.744-.972c.061-1.507.139-2.994.201-4.503 0-.509-.062-2.026-.201-4.55-.157-2.543-.219-3.916-.219-4.136 0-.5.142-1.122.42-1.882.289-.746.464-1.222.543-1.442 1.712-.209 4.745-.359 9.113-.425 4.358-.075 6.824-.114 7.394-.114h5.575c.721 0 1.335.013 1.877.052.535.035 1.02.062 1.457.062.508 0 .887-.036 1.176-.114l.639.856c.289.078.57-.031.86-.317.068-.066.14-.179.209-.315l3.315.965c.141.064.307.323.43.744 0 .151.052.4.116.746.078.088.543.219 1.402.434.851.211 1.43.462 1.701.75.078.074.16.4.219.964v.852h.65c-.157.435-.245.872-.327 1.298.86.499 1.42.955 1.72 1.389.071.425.112.974.112 1.61 0 .43.028.794.1 1.073l.866.531c.062.29.01.969-.175 2.039-.181 1.076-.22 1.793-.147 2.149 0 .073.096.421.322 1.069.204.65.32 1.207.32 1.707l-.642.863c0 .857.185 1.478.526 1.82.368.369.536.584.536.655l-.42 1.169v2.47l-.642.421c-.073.372.032.727.322 1.073.062.083.177.154.32.224 0 .934-.214 2.499-.642 4.715-.44 2.222-.869 3.647-1.281 4.292l-1.946 2.351c-.204.152-.499.221-.85.221-.361 0-.614.041-.757.103 0 .654-.112 1.046-.322 1.183l-1.511.965c1.379.504 2.762 1.233 4.191 2.205 1.42.957 2.368 1.911 2.798 2.837-.137.203-.263.421-.322.638.779.362 1.278 1.949 1.489 4.774.22 2.818.325 5.345.325 7.553 0 1.284-.018 2.488-.046 3.601a80.013 80.013 0 00-.059 2.95c.151.712.281 1.42.42 2.133m-41.155 4.295a.938.938 0 00.317.212c-.15.291-.433.46-.868.54.234-.498.394-.752.551-.752m74.735-29.592c-.799-.071-1.237-.21-1.297-.43.218-.069.464-.145.753-.214 0-.363.07-.543.219-.543.072.228.17.41.325.543v.644zm1.167-.644l-.642-1.714h.642c0-1.439.026-2.654.114-3.64.069-1.006.141-1.944.2-2.798 0-1.071-.104-2.1-.314-3.104h-.642c-.069-.285-.147-.601-.226-.964-.052-.5-.167-1.005-.299-1.505-.657.078-1.052.078-1.183 0v-.421h-2.472v.421a3.878 3.878 0 00-.755.759c0 .351-.095.71-.309 1.064h-.657c-.078.361-.105.922-.105 1.714.064 1.435.105 2.471.105 3.119a.98.98 0 00-.534.639h.534c-.078.142-.245.316-.534.532v3.538h.534c.072.509-.105.925-.534 1.289l.534 1.715c1.578.14 2.624.234 3.165.268.528.03 1.262.159 2.211.372.132-.213.525-.64 1.167-1.284m-11.357 22.086v-.216c.062-.285-.116-.428-.552-.428v.644h.552zm25.089-16.192h-.658v6.107c-.076.075-.245.075-.508 0-.069.075-.133.245-.133.534h-2.356v-1.176c-1.01-.284-1.721-.069-2.134.642-.069.075-.155.245-.224.534h-3.642V62.3c-.219-.059-.612-.102-1.172-.102h-2.255c-.072.162-.072.534 0 1.188h-.65l-.642 1.171c-.778-.142-1.358-.142-1.708 0l1.708-2.359c-.499 0-1.27-.048-2.304-.155a40.243 40.243 0 00-1.659-.152c-.729 0-1.368.096-1.938.307v.534h-.534c.358.654.534 1.438.534 2.372 0 1.006-.149 2.536-.48 4.606-.317 2.072-.484 3.402-.484 3.972 0 1.28.139 2.398.43 3.324h.534v1.183l.657.101c.14 1.002.309 1.96.526 2.895h3.01v-.541c.268-.138.5-.253.639-.311.07 0 .246-.114.544-.328.211-.499.299-1.393.299-2.68 0-1.284.079-2.18.226-2.684-.278-.064-.457-.103-.525-.103v-.439h.525v-4.814h13.075c0 .154.221.358.641.645v2.353h-.533c-.061.43-.108 1.084-.108 1.929v6.432h-.533v2.361h-.526c.052 1.07.052 1.862 0 2.358h-.658c.086.578.086.96 0 1.179l-1.177.651c.082.49.082.887 0 1.17h-.638l-.545 1.184h-1.165l-.641 1.177-2.473.65v.526c-.788-.06-1.358-.06-1.71 0v.537c-.789 0-2 .156-3.648.446-1.641.298-2.719.447-3.227.447h-2.035v-.893h-1.814V91.9c-1.361.146-2.361.146-3 0v-.526c-.798-.224-1.579-.43-2.368-.65v-.646c-.64.069-1 .069-1.07 0l-1.823-2.351h-.641c-.14-.215-.219-.534-.219-.965 0-.714-.106-1.179-.324-1.399l-1.815-.53v-1.185h-.642v-3.004h-.535v-4.707c.352-.146.569-.255.634-.331.157-.139.103-.279-.099-.434h-.535c0-1.419.061-2.889.167-4.392.133-1.495.245-3.041.368-4.609a20.16 20.16 0 00-.535-4.615h-.645V59.2h.645v-3.109h-.645c-.075-.212-.075-.492 0-.839.059-.508.267-.645.645-.434-.378-.418-.542-.711-.542-.855.137-.062.323-.145.542-.201v-9.995h.535v-2.463h.642v-2.363h-.642c0-.785.256-1.666.758-2.627.488-.956.846-1.665 1.057-2.096h-.637v-.643l1.279-.541V31.75l1.736-1.171c.114-.714.343-1.288.622-1.723h.649l1.07-1.825c.148-.069.543-.069 1.185 0v-.525c.781.069 1.392.069 1.822 0v-.755h1.177v-.425c.429-.15.825-.215 1.184-.215 1.139.132 1.972.215 2.471.215v-.675c.395.456 1.002.675 1.807.675v-.675c.86 0 1.929.115 3.211.343 1.297.221 2.368.332 3.235.332v.425c.857-.07 1.43-.07 1.71 0v.755h1.282v.525h1.191l.641 1.189h1.165l1.183 1.816c.082.074.283.187.649.328.064 0 .255.065.528.215-.071.556-.071.965 0 1.171h.658v1.284h.526v1.184h.533v1.175h.538c.078.281.103.775.103 1.461v2.517h.658c-.361.935-.544 1.503-.544 1.741.142.073.327.099.544.099v6.087h-.658c.441 1.013.658 1.61.658 1.828h-.658v1.395c.088.433.297.747.658.96v.54h-.658v2.822c.441.274.658.686.658 1.248m30.337-34.369c-.276 1.016-.492 2.055-.59 3.121-.113 1.084-.167 2.553-.167 4.426v3.014c0 .995.115 1.974.317 2.904h-.843v1.166c.379-.197.605-.128.711.225 0 .365.054.688.132.964h-.702c0 .141-.044.543-.141 1.176h.44c0 .086.131.296.403.654h-.843v5.038c0 1.852-.024 2.967-.088 3.319-.067.429-.209.582-.444.429v.649c.137.071.307.46.532 1.179h.641c.07.141.036.425-.115.855 0 .066-.027.166-.086.32v.321c-.16-.062-.299-.119-.44-.119 0 2.283.079 6.257.263 11.962.177 5.683.263 9.103.263 10.256h-.751c.173.211.304.35.392.424.247.348.359.777.359 1.283h-.526v3.002h.641l-.641 1.171c-.225.509-.044.873.526 1.083v.641h-.526v5.254h.526v.958c-.112.221-.233.433-.349.645-.064 0-.098.012-.098.059 0 .043-.027.305-.079.806.499.421.711.78.641 1.064a1.863 1.863 0 01-.641.107v2.906a.883.883 0 00-.532.64h-2.412c-.826 0-1.634-.036-2.412-.109-1.222 0-2.157.034-2.791.109-.069 0-.438.053-1.077.158-.64.102-1.114.128-1.404.059v-.542h-1.378l-.762-1.175h-.386c-.07-.148-.114-.57-.176-1.284 0-.215-.025-.576-.069-1.075.201-.078.42-.191.631-.329a11.871 11.871 0 01-.071-1.17c-.164-.078-.359-.251-.56-.54-.147-.145-.147-.249 0-.329h.631V75.606h.755v-1.814c-.307-.154-.509-.211-.577-.211a2.899 2.899 0 01-.809-.443c.773-1.071 1.229-1.636 1.386-1.705v-.538c-.211.068-.396-.185-.526-.756-.16-.571-.229-1.617-.229-3.1v-3.323a4.256 4.256 0 00-.631-.119c-.228-.141-.228-.281 0-.422h.631v-5.901c.194.07.332.07.428 0l-.428-.32c.142-.062.315-.176.57-.316 0-.073.054-.28.185-.654-.577-.279-.904-.469-.966-.534l.966-.539c-.211-.5-.327-.847-.327-1.075.074-.491.186-.741.327-.741h-.843c-.368-.854-.543-1.403-.543-1.613 0-.501.201-.751.631-.751v-.64l-.211-.209v-2.045h.543a9.76 9.76 0 00.096-1.395v-.741c0-.857-.069-1.774-.199-2.735-.16-.972-.3-1.915-.44-2.854.211 0 .324-.167.324-.53-.069-.568-.113-.993-.113-1.287a1.354 1.354 0 01-.528-.318c.142-.074.317-.142.528-.229.291-1.063.428-1.899.428-2.455v-.645c-.121-.276-.182-.455-.182-.535-.307-.283-.457-.675-.457-1.174h.211V28.22l.755-.224a1.44 1.44 0 01-.069-.43.699.699 0 01-.354.114c.142-.504.238-1.048.327-1.661.061-.611.096-1.227.096-1.873h-.755v-1.184l.755-.649c-.307-.131-.561-.419-.755-.858l.755-.641c-.141-.5-.307-1.1-.484-1.82-.175-.704-.271-1.35-.271-1.934 0-.281.054-.491.15-.634.096-.142.298-.142.605 0V9.339c.289-.203.474-.391.549-.531.863 0 1.617-.069 2.24-.189a18.332 18.332 0 002.008-.586h6.551l.665 1.632h.526v1.723h.317c0 .926-.052 2.261-.15 3.984a67.636 67.636 0 00-.167 4.297c.069.084.195.154.378.215.052 0 .193.03.379.124l-.757.635c.195.364.43.718.757 1.079m24.878 0c-.3 1.016-.482 2.055-.598 3.121-.105 1.084-.157 2.553-.157 4.426v3.014c0 .995.116 1.974.317 2.904h-.845v1.166c.379-.197.61-.128.706.225 0 .365.041.688.139.964h-.709c0 .141-.047.543-.136 1.176h.416c0 .086.14.296.429.654h-.845v5.038c0 1.852-.042 2.967-.103 3.319-.052.429-.201.582-.447.429v.649c.148.071.322.46.55 1.179h.644c.062.141.025.425-.116.855 0 .066-.034.166-.112.32v.321c-.141-.062-.28-.119-.416-.119 0 2.283.089 6.257.257 11.962.176 5.683.271 9.103.271 10.256h-.756c.17.211.3.35.381.424.253.348.375.777.375 1.283h-.528v3.002h.644l-.644 1.171c-.228.509-.042.873.528 1.083v.641h-.528v5.254h.528v.958c-.122.221-.235.433-.358.645-.057 0-.081.012-.081.059 0 .043-.035.305-.089.806.494.421.706.78.644 1.064a1.978 1.978 0 01-.644.107v2.906a.937.937 0 00-.55.64h-2.412c-.825 0-1.613-.036-2.412-.109-1.211 0-2.137.034-2.788.109-.071 0-.42.053-1.062.158-.637.102-1.114.128-1.394.059v-.542h-1.385l-.762-1.175h-.413c-.051-.148-.088-.57-.142-1.284 0-.215-.035-.576-.087-1.075.202-.078.43-.191.642-.329a8.022 8.022 0 01-.088-1.17c-.15-.078-.352-.251-.554-.54-.139-.145-.139-.249 0-.329h.642V75.606h.744v-1.814c-.299-.154-.499-.211-.577-.211a3.137 3.137 0 01-.809-.443c.781-1.071 1.248-1.636 1.386-1.705v-.538c-.201.068-.388-.185-.525-.756-.15-.571-.219-1.617-.219-3.1v-3.323c-.371-.085-.572-.119-.642-.119-.227-.141-.227-.281 0-.422h.642v-5.901c.193.07.332.07.427 0l-.427-.32c.123-.062.307-.176.551-.316 0-.073.073-.28.193-.654-.569-.279-.886-.469-.956-.534l.956-.539c-.201-.5-.317-.847-.317-1.075.072-.491.179-.741.317-.741h-.832c-.376-.854-.554-1.403-.554-1.613 0-.501.202-.751.642-.751v-.64l-.212-.209v-2.045h.526a10.2 10.2 0 00.113-1.395v-.741c0-.857-.071-1.774-.208-2.735-.15-.972-.291-1.915-.431-2.854.212 0 .325-.167.325-.53a9.908 9.908 0 01-.113-1.287 1.406 1.406 0 01-.539-.318c.144-.074.327-.142.539-.229.288-1.063.427-1.899.427-2.455v-.645c-.12-.276-.191-.455-.191-.535-.3-.283-.448-.675-.448-1.174h.212V28.22l.744-.224a1.75 1.75 0 01-.059-.43.686.686 0 01-.371.114 8.388 8.388 0 00.317-1.661c.079-.611.113-1.227.113-1.873h-.744v-1.184l.744-.649c-.299-.131-.551-.419-.744-.858l.744-.641c-.138-.5-.299-1.1-.481-1.82-.168-.704-.263-1.35-.263-1.934 0-.281.051-.491.147-.634.098-.142.298-.142.597 0V9.339c.297-.203.474-.391.552-.531.878 0 1.615-.069 2.245-.189a18.205 18.205 0 002.008-.586h6.553l.663 1.632h.528v1.723h.317c0 .926-.044 2.261-.16 3.984a72.985 72.985 0 00-.157 4.297c.052.084.195.154.379.215.051 0 .185.03.376.124l-.755.635c.195.364.43.718.755 1.079m34.841 19.359a.436.436 0 01-.113-.311c0-.158-.158-.224-.529-.224v.535h.642zm-1.83.744c-.062-.06-.116-.21-.116-.416 0-.211-.157-.328-.526-.328v.744h.642zm-1.817-5.472c-.06-.053-.104-.167-.104-.303 0-.157-.133-.217-.43-.217v.52h.534zm-3.533 29.182c.071.137.147.245.209.319-.062.072-.253.171-.534.317v-.426c0-.137.114-.21.325-.21m2.999-5.262l-.327-.646h-1.489v-.525c-.299-.069-.683-.108-1.183-.108-.423.069-.86.108-1.289.108.211.275.429.525.645.746.221.14.319.284.319.425 0 .08-.186.474-.535 1.176h-.658v1.192l-1.806.632c-.071-.426-.255-.632-.545-.632v4.176h-.641v.543h.641v3.638h-.641v1.825c.15.061.299.061.44 0 .059.061.132.254.201.543h-.641v.639l1.186.533c0 .13-.186.359-.545.633 0 1.369.062 2.316.168 2.851.111.541.446 1.373 1.016 2.522h.525c.09.065.114.177.114.306 0 .229.187.298.528.229V79.9h1.832l.546-1.711h.648v-1.184h.639v-2.467c-.369-.211-.578-.388-.639-.533.131-.074.314-.174.525-.323 0-.135.044-.43.114-.859-.441 0-.639-.256-.639-.756v-1.069a3.52 3.52 0 00.525-.328c0-.14.044-.422.114-.856h-.639v-4.279c-.16-.069-.3-.069-.43 0-.078 0-.15-.15-.218-.43l1.287-.643v-1.189c-.508-.064-.755-.392-.755-.955 0-.301.045-.546.116-.761.198-.424.314-.669.314-.741.072-.224.467-.401 1.177-.543m13.409 28.531l-.975.308c-.202.936-.385 1.86-.535 2.788h-.85l-.317.649c-.779.074-1.289.074-1.518 0v-1.288h-1.162l-.327.639h-1.184v.649c-.211 0-.314-.222-.314-.649h-.863v.649h-.972V91.9a54.81 54.81 0 01-2.999.116c-.57 0-.963-.04-1.176-.116-.149-.424-.332-.639-.544-.639v-1.714h-.85v.53h-1.297v1.184h-1.071l-.743 1.288c-.642-.134-1.01-.134-1.069 0v.435c-.433.131-1.106.214-2.047.214-.412 0-1.113-.043-2.033-.114a29.54 29.54 0 00-1.931-.1v.315c0 .216-.113.325-.314.325v-.64h-2.036a101.748 101.748 0 01-2.636-2.096c-.819-.676-1.232-1.06-1.232-1.123v-.961l-1.279-.875v-1.813h-.553l-.638-2.248h-.528l.528-.33c-.213-.708-.352-1.616-.416-2.732a47.471 47.471 0 01-.112-3.594h-.641c.204-.062.422-.137.641-.207v-1.588c0-.548.027-1.116.112-1.705 0-.657-.041-1.134-.112-1.429h-.641v-1.07c-.296-.136-.479-.25-.551-.318h1.192V65.03l.852-.434v-2.021l.649-.201v-1.616l1.075-.844c.057-.21.136-.728.214-1.54.069-.823.244-1.408.525-1.766.149-.206.404-.317.755-.317.438 0 .755-.062.965-.2l1.184-1.816c.568.069.965.069 1.174 0l.639-1.28h1.184l.651-1.207c.272-.127.778-.192 1.509-.192.691 0 1.191-.077 1.483-.229l.543-1.276c.646.061 1.026.061 1.181 0v-1.183c.572.083.956.083 1.167 0 0-.352.253-.752.757-1.179.218-.206.567-.43 1.078-.642v-.533h.525c-.071-.853-.071-1.465 0-1.826.438.206.867.439 1.297.654-.227-1.007-.314-1.688-.314-2.053 0-1.143-.116-2.06-.325-2.783h1.165v-.537h.651c-.219-.216-.44-.427-.651-.637v.637c-.642-.064-1.024-.064-1.165 0v-1.168c0-.585-.22-.98-.658-1.186v-.639l-2.36-.663c-.062.448-.235.663-.523.663v-.663c-.283.09-.495.293-.644.663-1.096-.074-1.849-.074-2.26 0-.078.35-.098.706-.098 1.069 0 .283-.209.504-.64.633v.654c.482.284.711.664.64 1.174h-.64v2.469c0 .499.026.858.088 1.068.368.356.552.791.552 1.299h-.64v2.263c-.369.21-.551.421-.551.622h-3.002c-.13.431-.246.815-.322 1.18-.702-.141-1.21-.237-1.491-.297-.069-.414-.149-.805-.211-1.206-.58-.146-1.01-.215-1.289-.215-.438 0-1.079.095-1.929.271-.859.17-1.511.267-1.938.267-.57 0-.972-.069-1.176-.219-.141-.365-.317-.538-.526-.538a63.34 63.34 0 00-.113-3.557c-.069-1.228-.157-2.455-.229-3.682 0-1.309.121-2.382.342-3.242h.526v-1.843h.324c.14-.206.282-.434.429-.642v-.431c0-.718.237-1.242.737-1.609a4.285 4.285 0 01-.314-.861c.295-.056.569-.187.867-.31v-.864l1.833-1.828h.842c.138-.146.228-.28.228-.422 0-.14.025-.434.097-.858h1.822v-.536l2.361-.535v-.653h1.812c.074-.439.178-.657.32-.657.508 0 .982.11 1.404.324.421.223.856.333 1.278.333v-.657h8.052v.657h2.355v.653c.43.07.74.111.966.111.715.139 1.214.276 1.511.424.132.487.235.855.314 1.062.052.224.255.363.526.439h1.518l.525 2.143c.71.364 1.142.64 1.297.864v1.499l.536.317v4.081h1.167c-.28 1.211-.464 1.987-.536 2.352-.069.5-.103 1.142-.103 1.941h.639c0 .556-.096 1.122-.324 1.711a5.144 5.144 0 00-.315 1.816h.639l-.324 8.682.859.218v.856c-.078.709-.133 1.139-.202 1.285l-.657.332c0 .353.069.602.228.741.14.137.28.293.429.43.069.435.098 1.119.098 2.033 0 .788-.011 1.488-.054 2.097-.044.606-.044 1.123-.044 1.549h-.657c0 .443.069.763.228.973.14.143.28.285.429.426.124 1 .202 1.788.202 2.367 0 .855-.024 1.776-.104 2.775a60.689 60.689 0 00-.098 1.723 2.63 2.63 0 00-.542.219c.289.996.454 1.541.542 1.61h-.657V75.4h.657v1.281h.632c.147.501.226 1.25.226 2.249 0 .645-.079 1.614-.226 2.903-.14 1.286-.209 2.281-.209 3 0 .417.069 1.056.209 1.928h.545v2.043zm-159.308 32.008a2.456 2.456 0 01-4.91 0c0-1.347 1.1-2.455 2.456-2.455a2.458 2.458 0 012.454 2.455" fill="#C0C0BF" fill-rule="nonzero"/></svg>