<svg width="240" viewBox="0 0 167 85" xmlns="http://www.w3.org/2000/svg" fill-rule="evenodd" clip-rule="evenodd" stroke-linejoin="round" stroke-miterlimit="2"><path d="M152.649 26.844s.855-.97-.08-3.069c-.65-1.459-2.647-3.681-4.924-3.384-.307.923-.289 1.477-.275 2.047.103 4.313 4.787 4.85 5.279 4.406M101.909 10.402s-5.193-6.854 2.479-8.247c2.4-.097 4.316 2.632 4.316 2.632s3.451-7.022 5.523-4.056c2.073 2.965-.703 9.415-1.566 11.736-.863 2.322-8.793.448-10.752-2.065M4.277 84.689v-5.181h.658v2.865l2.675-2.872h.708l-2.082 2.287 2.199 2.901h-.716l-1.885-2.521-.899.936v1.585h-.658zm11.433 0v-4.011l-1.725 3.076h-.372l-1.732-3.076v4.011h-.658v-5.188h.694l1.878 3.369 1.886-3.369h.687v5.188h-.658zm7.625-.584v.584h-3.522v-5.188h3.457v.585h-2.799v1.68h2.433v.549h-2.433v1.79h2.864zm6.858-4.019h-1.791v4.603h-.657v-4.603h-1.791v-.585h4.239v.585zm2.926-.578h.658v5.181h-.658v-5.181zm3.737 4.407c.097.068.229.129.395.183.165.053.353.08.562.08.249 0 .446-.044.592-.132a.83.83 0 00.333-.391c.075-.172.125-.386.15-.639.024-.253.036-.546.036-.877v-2.631h.658v2.631c.001.36-.017.72-.055 1.078-.027.289-.108.57-.241.829a1.314 1.314 0 01-.534.534c-.231.127-.544.19-.939.19-.438 0-.813-.107-1.125-.322l.168-.533zm5.425.774l2.134-5.188h.541l2.126 5.188h-.701l-.614-1.519h-2.178l-.606 1.519h-.702zm2.404-4.428l-.964 2.397h1.9l-.936-2.397zm10.895 4.428v-5.188h2.163c.229 0 .439.048.632.143.192.095.358.221.497.38.139.158.247.336.325.533.078.197.117.398.117.603 0 .422-.149.831-.42 1.155a1.515 1.515 0 01-.483.372 1.388 1.388 0 01-.624.139h-1.55v1.863h-.657zm.657-2.448h1.513a.806.806 0 00.65-.317c.078-.1.139-.216.183-.348.044-.134.067-.275.066-.416a1.165 1.165 0 00-.281-.767.903.903 0 00-.3-.227.839.839 0 00-.362-.08h-1.469v2.155zm6.088 2.448v-5.188h2.221c.229 0 .44.048.632.143.193.095.358.221.497.38.139.158.247.336.325.533.078.197.117.398.117.603.001.348-.102.689-.296.979-.094.135-.21.254-.343.351a1.367 1.367 0 01-.45.212l1.257 1.987h-.745l-1.184-1.863h-1.374v1.863h-.657zm.657-2.448h1.571c.137 0 .26-.029.369-.087a.887.887 0 00.282-.238c.078-.1.139-.215.182-.347.044-.131.066-.268.066-.409 0-.146-.025-.284-.077-.413a1.227 1.227 0 00-.204-.343.924.924 0 00-.3-.234.798.798 0 00-.362-.084h-1.527v2.155zm6.336-2.733h.658v5.181h-.658v-5.181zm7.153 1.082a1.051 1.051 0 00-.234-.197 2.26 2.26 0 00-1.177-.344c-.404 0-.7.076-.887.227a.754.754 0 00-.282.621.682.682 0 00.081.351c.061.1.148.182.252.237.114.066.257.123.427.172.171.049.373.1.607.153.268.059.51.126.727.201.217.076.402.17.555.282.154.112.271.248.351.409.08.161.121.358.121.592 0 .248-.049.464-.147.646-.097.183-.23.334-.398.454-.18.124-.382.213-.595.263a3.173 3.173 0 01-.746.084c-.399 0-.778-.062-1.136-.187a3.208 3.208 0 01-.976-.544l.315-.555c.078.082.179.165.303.248.124.083.265.157.424.223.158.066.328.119.511.161.183.041.374.062.574.062.37 0 .657-.066.862-.198.205-.131.307-.328.307-.591a.658.658 0 00-.099-.37.832.832 0 00-.288-.259 2.182 2.182 0 00-.472-.194c-.187-.056-.4-.113-.639-.171a6.657 6.657 0 01-.694-.205 1.904 1.904 0 01-.501-.263.999.999 0 01-.303-.373 1.237 1.237 0 01-.102-.526c0-.248.046-.467.138-.657a1.38 1.38 0 01.388-.483c.165-.131.363-.23.592-.296.229-.065.477-.098.745-.098.351 0 .667.053.95.16.283.108.533.251.753.432l-.307.533zm7.306-.504h-1.79v4.603h-.658v-4.603h-1.79v-.585h4.238v.585zm3.602.643v3.96h-.658v-5.188h.512l3.215 4.041v-4.034h.658v5.181h-.556l-3.171-3.96zm7.16-1.221h.658v5.181h-.658v-5.181zm8.264-.007v5.188h-.658v-2.36h-2.857v2.36h-.658v-5.188h.658v2.244h2.857v-2.244h.658zm9.321 5.188v-5.188h1.798c.414 0 .778.068 1.092.205.314.136.576.321.786.555.209.234.366.508.471.822.105.314.157.649.157 1.005 0 .395-.058.751-.175 1.071a2.31 2.31 0 01-.504.818 2.265 2.265 0 01-.793.526c-.31.124-.654.186-1.034.186h-1.798zm3.639-2.601c0-.292-.04-.561-.12-.807a1.656 1.656 0 00-.939-1.045c-.229-.1-.49-.15-.782-.15h-1.14v4.019h1.14c.297 0 .561-.051.793-.154.231-.102.423-.243.577-.423.153-.181.27-.394.351-.64.08-.246.12-.513.12-.8zm5.918 2.638c-.365 0-.698-.074-.997-.223a2.45 2.45 0 01-.771-.592 2.686 2.686 0 01-.497-.844 2.781 2.781 0 01-.176-.972c0-.346.063-.677.187-.993.124-.317.296-.597.515-.841.219-.243.479-.437.778-.581.3-.144.625-.215.976-.215.365 0 .696.076.994.23.297.153.553.354.767.603.214.248.38.529.497.844a2.73 2.73 0 01-.011 1.954 2.723 2.723 0 01-.512.837c-.217.241-.48.438-.774.577-.3.144-.625.216-.976.216zm-1.776-2.631c0 .263.043.518.128.764.086.246.206.464.362.654s.343.341.563.453c.219.112.463.168.73.168.278 0 .527-.06.746-.179.219-.119.405-.275.559-.468.153-.192.27-.41.351-.654a2.344 2.344 0 00-.008-1.501 2.01 2.01 0 00-.365-.651 1.818 1.818 0 00-.563-.449 1.528 1.528 0 00-.72-.168c-.277 0-.526.058-.745.175a1.803 1.803 0 00-.559.461c-.153.19-.272.406-.354.65a2.298 2.298 0 00-.125.745zm8.353-4.099l.621.46.621-.46.351.175-.738.658h-.468l-.738-.658.351-.175zm-1.564 6.182l3.347-4.092h-3.281v-.585h4.048v.512l-3.288 4.092h3.288v.584h-4.114v-.511zm7.22-4.67h.658v5.181h-.658v-5.181zm4.219-.007l1.717 4.363 1.71-4.363h.695l-2.12 5.188h-.57l-2.126-5.188h.694zm10.519 4.604v.584h-3.523v-5.188h3.457v.585h-2.799v1.68h2.433v.549h-2.433v1.79h2.865zm6.872-4.019h-1.791v4.603h-.657v-4.603h-1.791v-.585h4.239v.585zm2.94-.578h.658v5.181h-.658v-5.181zm3.752 4.407c.097.068.229.129.394.183.166.053.354.08.563.08.249 0 .446-.044.592-.132a.823.823 0 00.332-.391c.076-.172.126-.386.15-.639.025-.253.037-.546.037-.877v-2.631h.657v2.631c0 .395-.018.754-.054 1.078-.027.289-.108.57-.241.829a1.326 1.326 0 01-.534.534c-.231.127-.544.19-.939.19-.438 0-.814-.107-1.125-.322l.168-.533zM27.48 69.64v-.46c.189.038.287.114.287.23-.078.153-.174.23-.287.23m-.289-23.964c-.385-.114-.596-.172-.635-.172a.65.65 0 01.174-.115c.23 0 .383.096.461.287m0-.921l-.461.115-.23-1.728.403-.174.288.52v1.267zm-1.094-23.042h-.635v-.519h-.517l-.289-.46c-.5.077-.942.114-1.324.114l-1.44-.114v-.346c.574 0 1.016-.039 1.324-.115.116-.038.346-.106.692-.202.345-.095.554-.145.633-.145h1.095c.305.077.461.347.461.808v.979zm-4.609 23.042c-.078-.037-.115-.116-.115-.231 0-.076-.096-.114-.289-.114v.345h.404zm-.518 9.389c.037 0 .076-.019.114-.057-.153-.153-.25-.23-.288-.23l.174.287zm-.924 8.642c.118 0 .251-.019.405-.057-.037-.115-.172-.212-.405-.289v.346zm0-1.094c.27-.193.405-.406.405-.635 0-.114-.135-.173-.405-.173v.808zm-.517-.52V61c0-.116-.057-.154-.172-.116-.193.039-.289.097-.289.173 0 .079.153.115.461.115m.115-6.393c.039-.037.039-.135 0-.287-.115-.308-.211-.461-.287-.461-.078 0-.115-.02-.115-.059l-.231.691c.192.039.403.079.633.116m3.054-7.317c-.193-.191-.46-.344-.806-.462l.113-.517h.174c.115 0 .155-.058.115-.173h-.519l-.287-.461a4.316 4.316 0 01-.518.174c-.078-.385-.136-.596-.174-.634a.707.707 0 00-.402-.116.796.796 0 01-.348-.058l-.402-.46h-.922v-.461c.115-.038.365-.057.75-.057h.633c.076 0 .192.019.346.057l.345-.806c.153.077.309.115.461.115l.635-.347v-.46c-.078-.037-.174-.019-.289.058l-.115.114a4.205 4.205 0 01-.231-.633l1.037-.634h.231l.173.461c.038.116.057.404.057.865 0 .192-.009.595-.029 1.21-.014.384-.023.768-.028 1.152v.575c-.038.077-.097.097-.173.059v.229c.037.038.096.058.173.058v1.152zm-4.263 12.616c.152 0 .326-.018.518-.057-.039-.115-.211-.211-.518-.288v.345zm.287-29.724a.673.673 0 01-.115-.232.66.66 0 00-.172-.114v.346c.037 0 .152.039.346.114-.039-.038-.059-.075-.059-.114m0 30.07h-.689v.23c.037.039.172.115.402.23.152-.076.25-.133.287-.173v-.287zm-.517-2.594c0-.037.019-.075.056-.114a1.374 1.374 0 00-.228-.346l.172.46zm.806-26.498h-1.095l.117.749h.689l.289-.749zM17.916 61.98l-.633-.288c-.538.307-.846.499-.922.575a.828.828 0 00.23.173c.116-.075.192-.116.231-.116.191-.077.345-.115.461-.115l.115.461c-1 0-1.498.077-1.498.232 0 .113.365.229 1.096.345h-.174c.076.077.076.134 0 .172a.534.534 0 01-.231.058c.076.192.25.346.519.462v-.692c.307.115.538.172.691.172.191-.422.288-.749.288-.979 0-.116-.056-.269-.173-.46m-2.879-33.873c.115-.037.229-.076.345-.115 0-.153-.173-.231-.519-.231l.174.346zm-.174 34.851h-.633c-.115.078-.115.212 0 .404.115.192.057.327-.174.403-.113.039-.422-.02-.922-.172l-.172.346.461.114c.577.077.941.02 1.095-.173.151-.384.269-.691.345-.922M12.962 27.07c-.039-.153-.097-.232-.171-.232l.171.232zm-.461-.692c.231-.152.307-.306.231-.46-.039-.115-.174-.134-.403-.057-.23.115-.308.269-.23.461.037.115.172.133.402.056m.922 39.116v-.347h-1.441c0 .386.059.768.174 1.153h.461c.076-.154.115-.25.115-.288.076-.191.152-.308.23-.347.16-.04.314-.097.461-.171m.116-2.247v-.289c-.194.039-.328.039-.405 0-.037-.037-.076-.134-.113-.288 0-.038-.021-.114-.059-.23-.269.039-.421.039-.461 0a2.225 2.225 0 01-.691 1.153c.038.115.076.211.115.287.076 0 .211.019.404.059l.288-.981c.152.116.345.193.576.231.076 0 .191.019.346.058m-2.478.172c.077-.076.173-.249.288-.517 0-.155.02-.308.058-.462a1.355 1.355 0 00-.346.23v.749zm-.979.98c.191-.076.289-.211.289-.404a.669.669 0 01-.289-.056c-.116.114-.172.191-.172.229a.865.865 0 00.172.231m-.633-3.688c.383 0 .576-.075.576-.23 0-.114-.115-.269-.346-.46a2.959 2.959 0 01-.404-.288l.174.978zm.804 1.269l-.689-.288-.576.288.806 1.439h.288v-.749a1.332 1.332 0 01-.172-.346c.076-.037.172-.094.287-.172 0-.038.019-.095.056-.172m-1.437-6.395c.114-.077.191-.133.228-.174.192-.191.29-.325.29-.403 0-.151-.174-.229-.518-.229v.806zm.172-24.655c-.039-.038-.039-.116 0-.23 0-.039-.058-.059-.172-.059l.172.289zm0 21.601c0-.192-.115-.287-.346-.287l.346.287zm.115 1.211c.076-.269-.078-.442-.461-.52-.077.385-.077.598 0 .635h.346c-.078 0-.137-.019-.172-.059l.287-.056zm-.635 6.451h.174c0-.153-.096-.23-.287-.23l.113.23zm0-2.477l-.113-.346.113.346zm.174-10.08c.037-.269-.135-.404-.519-.404l.519.404zm-.519-2.247c.154-.039.25-.116.289-.231a5.069 5.069 0 01-.405-.116l.116.347m-.116 12.327c.039-.152.059-.249.059-.287-.039-.076-.115-.097-.231-.059.038.116.096.231.172.346m.809 4.493c-.156-.306-.27-.441-.348-.403l.348-.634A8.312 8.312 0 018.007 61a1.385 1.385 0 01-.344.172c.115.194.268.404.46.634l-.116.518.809-.115zm-.981-3.571c.192-.115.288-.268.288-.461 0-.229-.153-.347-.46-.347l-.115.635c.037.154.133.212.287.173m-.287-20.334a20.71 20.71 0 01-.345-.231v.231h.345zm-.232 9.734c-.113.155-.172.25-.172.289 0 .076.02.153.059.23.113-.154.191-.249.228-.288a12.424 12.424 0 00-.115-.231M6.74 34.212c.076-.037.174-.093.289-.172-.039-.192-.135-.306-.289-.345v.517zm-.172 26.96c.039 0 .076-.018.115-.056-.115-.155-.211-.232-.289-.232l.174.288zm.98-11.175l-.461-.519c.116-.191.172-.324.172-.402a1.051 1.051 0 01-.056-.347c-.387.039-.606.193-.664.462-.057.269-.106.5-.145.691l1.154.115zm-.98-4.493c.115-.038.23-.096.346-.173-.116-.116-.289-.211-.52-.289.039.308.096.462.174.462m0 12.846l-.174-.98h-.287l.115.46v.52h.346zm.172-15.554v-.634a22.03 22.03 0 01-.633-.114c.038.114.135.211.287.287v.288h-.172c.08.081.18.14.289.173h.229zM5.3 47.751c-.039-.039-.056-.096-.056-.173 0-.077-.098-.116-.289-.116v.289H5.3zm0-1.556c-.039-.037-.056-.116-.056-.231 0-.076-.098-.115-.289-.115v.346H5.3zm-.345 9.102c.077-.153.115-.249.115-.289a.515.515 0 01-.231-.057c-.115.039-.171.097-.171.173 0 .077.094.134.287.173m-.116-13.596l-.345-.344c-.116.076-.23.134-.346.172l.23.633.461-.461zm-.691 1.441c.116 0 .174-.02.174-.058-.039-.153-.154-.25-.346-.288l.172.346zm-.807-21.775l-.229-.116c.036-.23.114-.365.229-.403v.519zM24.253 57.37l-.23.98c-.039.231-.068.826-.088 1.785-.019.96-.085 1.623-.199 1.987-.118.37-.273.727-.463 1.067-.307.538-.498.884-.575 1.036h-.288c-.155.309-.287.616-.405.922a4.016 4.016 0 00-.402.231c-.346.537-.615.903-.807 1.094-.191.154-.49.316-.892.49-.403.172-.758.317-1.067.433-.613.308-1.334.537-2.16.69-.826.155-1.603.231-2.332.231-.461 0-.988-.03-1.585-.086a40.344 40.344 0 01-1.699-.201 37.407 37.407 0 01-1.699-.289c-.596-.116-1.105-.326-1.527-.635l-.287-.633c-.345.115-.578.174-.691.174-.232-.039-.799-.607-1.701-1.7-.903-1.095-1.432-1.815-1.584-2.16-.076-.078-.076-.269 0-.577l-.518-.69c-.078-.307-.115-.711-.115-1.21.032-.441.052-.883.059-1.325 0-.153-.041-.499-.118-1.036l-.287-.232a4.844 4.844 0 01-.115-.921c0-.346.02-.729.058-1.152.038-.423.057-.653.057-.692-.078-.153-.115-.249-.115-.288-.078-.23-.115-.403-.115-.519.037-.23.058-.595.058-1.094 0-.576-.021-1.161-.058-1.756-.039-.595-.078-1.201-.115-1.816 0-.537.029-1.267.086-2.189.058-.921.087-1.401.087-1.44 0-.576-.021-1.017-.058-1.325l-.231-1.901.231-.575c0-.306-.039-.807-.115-1.499-.079-.691-.116-1.171-.116-1.439 0-.922.077-2.132.231-3.63.152-1.497.23-2.745.23-3.744a11.473 11.473 0 01-.057-.98c0-.306.018-.518.057-.634l.461-1.037v-.805l.518-.173c.038-.231.076-.48.117-.749.305-.384.612-.786.92-1.21v-.461h.346c.115-.038.24-.201.375-.488.132-.289.22-.453.259-.491.153-.076.373-.134.662-.173.205-.02.408-.059.606-.116l.23-.287c.998-.423 1.881-.75 2.649-.98 1.152-.346 2.17-.519 3.055-.519 1.727 0 3.474.299 5.242.894 1.764.596 3.013 1.317 3.742 2.16 0 .308.039.539.117.691l.518.288c.152.577.307 1.058.461 1.441l.461.635a.782.782 0 00-.116.575c0 .153.057.365.172.634.078.193.174.384.289.576.037.229.059.614.059 1.151 0 .346-.012.691-.031 1.038-.019.345-.028.672-.028.979a.692.692 0 00-.174.115c.116.076.193.385.233.921.037.539.056 1 .056 1.384 0 .806-.039 1.324-.115 1.554a31.481 31.481 0 00-2.91-.23 89.678 89.678 0 00-1.871-.058H17.11l-.288-.345c.076-.5.115-.883.115-1.152 0-.23-.115-.422-.346-.576.039-.308.086-.606.145-.893.056-.288.086-.643.086-1.066 0-1.074-.201-2.007-.605-2.795-.403-.785-.942-1.256-1.612-1.411a8.503 8.503 0 00-1.873-.23c-.385 0-.711.049-.979.145-.269.096-.597.373-.98.835-.385.461-.615.826-.691 1.094-.078.269-.116.691-.116 1.268v.806c-.039.23-.056.403-.056.518a50.036 50.036 0 00-.174 4.206v2.563c0 .864.019 1.738.058 2.62h.288v.288c-.231.155-.346.482-.346.981.039.538.058.921.058 1.152 0 .038-.039.326-.115.863-.078.539-.115.942-.115 1.21l.346.807c0 .73-.02 1.671-.059 2.823a86.35 86.35 0 00-.057 2.88c0 .461.047.97.143 1.526.098.557.184 1.029.26 1.412.076.384.135.729.174 1.038-.039.267-.059.46-.059.575a1.656 1.656 0 00-.059.403c.04.232.223.683.549 1.354.326.673.567 1.086.721 1.239h.459l.347.461c.305.114.653.172 1.036.172.615 0 1.153-.058 1.615-.172a5.03 5.03 0 001.209-.461l1.209-1.96c0-.421.01-.835.029-1.237.018-.404.086-.606.201-.606l-.345-.69v-1.038l.115-1.496v-2.593c.461.077 1.037.134 1.728.172.692.039 1.344.056 1.958.056.691 0 1.171-.017 1.441-.056.145-.066.302-.106.461-.116.422-.114.71-.133.864-.056l.288.345c0 .769.018 1.67.058 2.707.036 1.037.057 1.844.057 2.419M2.363 20.848v.346c-.039.04-.115.04-.231 0l-.23.345-1.555.174c-.193-.077-.289-.268-.289-.576 0-.191.096-.326.289-.403.922.077 1.592.114 2.016.114m46.511 29.327l-.117.346.117-.346m-10.023 0c-.424-.037-.655-.115-.692-.229a4.73 4.73 0 01.402-.117c0-.191.04-.289.116-.289a.704.704 0 00.174.289v.346zm.632-.346l-.345-.922h.345c0-.766.02-1.42.057-1.958.039-.537.078-1.037.117-1.499 0-.575-.058-1.131-.174-1.67h-.345a10.437 10.437 0 01-.116-.518 6.487 6.487 0 00-.171-.806c-.346.038-.557.038-.635 0v-.23h-1.324v.23c-.155.115-.288.25-.403.404 0 .192-.058.384-.174.576h-.345c-.039.192-.057.499-.057.921.037.769.057 1.325.057 1.671a.512.512 0 00-.288.345h.288c-.039.078-.135.173-.288.287v1.903h.288c.037.268-.057.499-.288.691l.288.921c.843.076 1.412.125 1.699.144a8.02 8.02 0 011.182.202c.076-.116.287-.346.632-.692m-6.105 11.867v-.115c.037-.154-.059-.23-.289-.23v.345h.289zm13.478-8.699h-.343v3.28c-.048.04-.141.04-.278 0-.047.04-.068.137-.068.292h-1.268v-.634c-.539-.152-.921-.037-1.152.345-.039.041-.078.136-.117.289h-1.957v-.24c-.115-.031-.326-.049-.633-.049h-1.211c-.039.08-.039.289 0 .635h-.346l-.345.633c-.422-.076-.731-.076-.922 0l.922-1.268c-.268 0-.682-.028-1.239-.085a29.566 29.566 0 00-.892-.086 2.978 2.978 0 00-1.037.171v.289h-.288c.192.346.288.768.288 1.268 0 .537-.086 1.363-.26 2.477-.172 1.113-.259 1.823-.259 2.132 0 .691.077 1.286.231 1.785h.288v.633l.345.058c.077.538.174 1.057.289 1.556h1.612v-.288l.345-.173c.04 0 .135-.058.29-.173.115-.268.171-.749.171-1.44 0-.692.039-1.172.116-1.44a1.874 1.874 0 00-.287-.059v-.23h.287v-2.591h7.029c0 .076.115.192.346.345v1.267h-.289c-.039.231-.057.576-.057 1.038v3.456h-.289v1.266h-.287c.037.576.037 1 0 1.268h-.346c.037.308.037.517 0 .635l-.635.344c.039.269.039.482 0 .634h-.345l-.287.634h-.634l-.347.634-1.324.345v.288c-.424-.038-.731-.038-.922 0v.289c-.423 0-1.076.079-1.959.237-.883.159-1.459.237-1.727.237H35.97v-.474h-.981v-.289c-.728.078-1.265.078-1.611 0v-.288l-1.268-.345v-.345c-.345.037-.537.037-.576 0l-.98-1.269h-.346c-.076-.114-.113-.288-.113-.517 0-.383-.059-.634-.174-.75l-.979-.287v-.634h-.345V66.19h-.289v-2.535c.192-.076.308-.134.345-.173.078-.077.059-.153-.056-.23h-.289c0-.768.032-1.556.095-2.362.065-.806.129-1.632.194-2.477 0-.843-.097-1.671-.289-2.478h-.345v-1.266h.345v-1.672h-.345c-.038-.113-.038-.265 0-.457.038-.265.153-.342.345-.227-.192-.228-.288-.381-.288-.458.077-.037.173-.076.288-.114v-5.368h.289v-1.324h.345V43.78h-.345c0-.421.134-.892.403-1.411.269-.517.461-.893.575-1.123h-.346v-.345l.692-.289v-.691l.922-.633c.076-.384.192-.692.345-.922h.346l.576-.98c.077-.037.288-.037.634 0v-.287c.423.038.749.038.98 0v-.404h.632v-.23a1.98 1.98 0 01.633-.116c.615.078 1.057.116 1.326.116v-.359c.219.239.543.359.979.359v-.359c.461 0 1.037.059 1.728.178.692.122 1.268.181 1.729.181v.23c.461-.038.768-.038.922 0v.404h.691v.287h.633l.347.635h.634l.632.978c.039.039.155.098.346.173.037 0 .135.04.289.116-.039.308-.039.518 0 .633h.346v.691h.287v.634h.289v.634h.287c.039.149.059.412.059.785v1.346h.343c-.191.506-.287.818-.287.935.076.04.172.058.287.058v3.271h-.343c.228.537.343.864.343.979h-.343v.748a.71.71 0 00.343.519v.289h-.343v1.514c.228.15.343.374.343.673m24.577-20.094a2.49 2.49 0 01-.289-.116c.039-.115.135-.191.289-.231v.347zm.922 2.822l-1.268-.575-.174 11.808c.155.038.25.057.29.057v.289h-.29v5.185h.29c-.116.192-.327.287-.633.287.075.155.191.27.343.347 0 .384-.017.825-.056 1.324-.039.499-.078.999-.115 1.498 0 .46.056.903.171 1.324.194.116.29.212.29.287l-.633.348c.067.384.113.768.136 1.151.024.384.036.865.036 1.441v4.205c-.309.077-.873.173-1.7.287-.826.116-1.566.174-2.218.174-.577 0-1.037-.058-1.381-.174l-.289-.633c-.461.076-.787.076-.981 0-.076-.191-.191-.306-.344-.346v-4.493h.344v-.345c-.267-.153-.383-.462-.344-.921h.344v-.981h-.344c.231-.345.344-.672.344-.978 0-.346-.113-.769-.344-1.269.231 0 .344-.114.344-.345 0-.152-.049-.345-.146-.577a2.864 2.864 0 00-.198-.344h.344v-.98c-.152-.038-.267-.019-.344.058l-.289.289v-.981l.633-.346c.155-.306.233-.632.233-.978 0-.307-.028-.625-.078-.951-.051-.326-.104-.642-.155-.95 0-1.154.028-2.39.078-3.715l.155-4.004v-2.88h-.262a664.58 664.58 0 01-.315-1.959h-.709c-.171-.614-.3-1.017-.386-1.209-.192.114-.287.268-.287.459v.116c-.346-.038-.577-.038-.692 0v.346h-.635l-.287.978a4.415 4.415 0 01-.691-.171c-.309 1.612-.615 3.208-.922 4.78 0 .193.031.327.096.404l.191.114c-.191.117-.287.309-.287.578v15.091c0 .461.051.903.154 1.326.067.039.135.077.205.114.106.078.139.213.102.404h-.346l-.115.461v1.785l.287.173c0 .078-.095.174-.287.289 0 .037.076.278.231.72.152.441.171.797.056 1.065l-.287.288c-.5.116-1.019.222-1.556.318a8.486 8.486 0 01-1.44.142c-.461 0-.807-.037-1.037-.114-.039-.038-.057-.077-.057-.115-.23-.231-.48-.307-.75-.231-.114.269-.268.384-.46.346-.154-.23-.307-.346-.462-.346a.44.44 0 00-.056.174.434.434 0 01-.461.172v-.346c-.346-.115-.557-.211-.635-.288v-.98h.289c.031-.364.05-.729.057-1.094 0-.384-.114-.651-.346-.806v-.289h.289v-8.064h-.289v-.46h.289c0-.566.02-1.141.057-1.724l.115-1.723c0-.265-.037-.415-.115-.453a1.524 1.524 0 01-.346-.17c.232-.529.385-1.167.461-1.921h-.633c-.037-.077-.058-.272-.058-.581v-.466c0-.309.021-.502.058-.58l.633-.29c.078-.388.115-.738.115-1.045 0-.234-.018-.601-.056-1.105-.039-.502-.059-.87-.059-1.103v-8.539l.348-.233c.037-.455-.078-.759-.348-.913.309-.458.463-.838.463-1.143.152-.875.228-1.884.228-3.028 0-1.14-.038-2.188-.115-3.14-.267-3.274-.402-4.988-.402-5.141.152-.037.25-.057.289-.057a.99.99 0 00.228-.057h6.511c.114.423.173.921.173 1.498 0 .653-.02 1.208-.059 1.67-.154 1.843-.228 2.861-.228 3.054l-.348.172c-.038.193.078.576.348 1.153l-.348.114c.078.346.194.557.348.635l-.174.345c-.078.154-.127.461-.144.921-.017.345-.027.691-.03 1.037.231.039.348.097.348.173l-.348.116v.345h.348l-.174.633a.448.448 0 01-.174.058c.115.116.231.212.348.289v.46c-.31.308-.483.48-.52.519-.078.076-.115.327-.115.749v.517c.307-.113.613-.23.922-.345v-.978a.515.515 0 01.575 0c.116.115.249.229.403.344l.174-.344c0-.038.057-.134.172-.288h.289v-.634c.121-.116.334-.182.639-.202.307-.019.56-.067.764-.145l.671-.978h.692l-.174-.289c.153-.037.424-.057.807-.057.691.038 1.172.057 1.441.057v.289c.611-.04 1.035-.04 1.266 0v.345h.634v.288h.633l.346.692h.346c-.039.345-.039.556 0 .634l.633.288v.691l.634.287v.345h-.345c-.039.308-.039.519 0 .635l.691.345c.152.27.307.519.461.749h.461v.461zm21.848 25.224l-.345-.312-.039.254.384.058zm2.12-11.462c-.133-.28-.369-.447-.709-.498.02.075.053.146.099.21.085.014.288.108.61.288m-2.351 12.999c-.17-.331-.407-.497-.71-.501-.013.087-.002.154.034.203.121.062.345.16.676.298m2.671-17.729c-.175-.287-.412-.454-.71-.498-.012.084-.001.152.037.201.127.018.351.12.673.297m-.111-4.467c-.037-.048-.049-.115-.035-.201.018-.128-.059-.205-.227-.231l-.058.384.32.048zm-.213-.753c-.032-.091-.01-.238.067-.446.072-.207-.018-.33-.274-.369l-.115.767.322.048zm.17-3.312c-.08-.054-.115-.104-.109-.146.019-.129-.078-.208-.291-.242l-.047.321.447.067zm-.656 4.352l.058-.383-.709-.5.203.817.448.066zm-.332-2.995c.351-.033.594-.042.723-.023.041.007.13-.002.265-.025-.308-.12-.619-.232-.932-.336l-.056.384zm-3.762 27.12c-.047-.27-.262-.433-.646-.49-.092.031-.184.059-.274.088.078.058.383.191.92.402m.172-3.313c-.166-.067-.379-.23-.646-.49l-.114.769c.395-.029.639-.058.731-.087.008-.041.017-.105.029-.192m3.375-10.226l.154-1.022-.384-.058c-.057-.489-.09-.995-.098-1.522l-1.793-.269-.047.319c.627.183 1.203.401 1.732.654l-.162 1.088.319.048c-.16.195-.242.314-.25.358-.043-.009-.085-.015-.127-.021l-.049.319.705.106zm-.055-9.629c-.341-.052-.683-.104-1.023-.153.045.267.113.541.203.815-.006.043.045.137.154.284.041.007.264-.308.666-.946m-3.049 10.668c1.409.212 2.125.234 2.151.062.027-.169-.656-.425-2.045-.767l-.106.705zm2.731-15.494c-.039-.049-.05-.114-.035-.201.012-.086-.09-.145-.303-.177l-.049.319.387.059zm-.447 19.895c-.092-.842-.157-1.288-.192-1.337-.461-.13-.921-.265-1.379-.404.008-.348.036-.67.081-.97.025-.171.015-.258-.026-.266-.213-.031-.525-.145-.932-.337-.032.497-.063.995-.093 1.493-.039.254-.28.699-.723 1.33.176-.016.281 0 .318.049a.732.732 0 00.016.329c-.227.054-.346.122-.357.208.064.141.166.199.3.176.202-.187.349-.297.442-.326l-.057.383.703.107.155-1.025-.704-.106.059-.383c.717.153 1.176.287 1.377.404.121.062.459.289 1.012.675m-.643-15.282a.452.452 0 01-.035-.202c.012-.084-.088-.142-.301-.176l-.047.321.383.057zm-.82-4.116c.431.022.691.038.777.052l.148-.109a12.73 12.73 0 00-.867-.326l-.058.383zm-4.846 29.117l-.641-.097.206.816c.207.077.322.027.348-.144l.087-.575m-3.201-.483a.514.514 0 01-.035-.201c.013-.085-.086-.143-.299-.175l-.049.319.383.057zm-1.471-.221l.03-.191a2.658 2.658 0 01-.301-.176l-.049.319.32.048zm-.492-1.514c-.037-.049-.051-.095-.045-.136.068-.165-.004-.265-.217-.297l-.058.384.32.049zm.547-5.808c-.035-.049-.043-.137-.025-.267.013-.083-.086-.143-.299-.176l-.057.386.381.057zm.109-3.323c-.037-.047-.047-.115-.034-.201.013-.084-.089-.145-.302-.176l-.048.32.384.057zm1.415-6.79c-.132-.281-.368-.448-.708-.499-.015.086-.023.149-.029.193.12.061.367.163.737.306m-2.561 11.789l.049-.321a.71.71 0 00-.311-.111l-.057.384.319.048zm-.203-.817c.353-.033.594-.041.722-.021.043.005.129.019.256.039a16.825 16.825 0 01-.939-.274l-.039.256zm4.369-30.301c.037.051.072.101.109.148-.043-.006-.16.042-.349.145.074-.207.154-.306.24-.293m-2.145 22.913l.059-.384a5.898 5.898 0 01-.719-.435l-.049.319-.761.28-.058.383 1.088.165c-.151.468-.351.92-.597 1.347a4.807 4.807 0 00-.777-.05l1.103.495c.272-.659.432-1.134.477-1.434.053-.34.002-.589-.149-.743l.383.057zm.213-1.408l.223-.163c.012-.085-.024-.286-.108-.604l-.767-.117c.072.101.08.189.025.267-.111.157-.246.183-.402.07l.105-.704-1.472-.222.277.762c-.268.048-.406.093-.412.134.115.105.234.188.355.249.131-.283.256-.396.379-.335l-.058.383 1.472.223-.048.321c.162.067.306-.021.431-.264m-1.365-8.321l.049-.32a.74.74 0 00-.311-.113l-.056.384.318.049zm9.562 22.125l.115-.77c-.128-.019-.216-.164-.261-.43-.201-.118-.455-.103-.762.049-.306.148-.562.187-.769.113-.073-.099-.127-.172-.162-.222-.189-.203-.35-.293-.485-.269-.047.036-.082.119-.101.246-.02.128-.133.156-.338.08l.056-.384c-.394-.276-.611-.441-.646-.491.006-.041.047-.166.123-.373.006-.042.125-.114.357-.209l.057-.382c-.303-.31-.379-.668-.228-1.083l.384.057c.037-.254.076-.512.115-.768l.704.106.058-.383c-.42-.106-.664-.231-.73-.372l.404-.07.106-.705.769.116c.045.27.133.413.262.432.16-.192.322-.409.489-.646-.599-.091-1.194-.179-1.792-.269-.047-.27-.155-.417-.326-.442.111-.158.191-.255.242-.291.207-.229.293-.371.258-.42l-.385-.057c.158-.763.269-1.334.326-1.718.051-.342.065-.58.041-.714-.174-.288-.242-.56-.203-.817l.319.048.164-1.087.384.058c.057-.384.03-.626-.086-.734-.043-.006-.107-.017-.193-.028l.166-1.087-.769-.117.105-.703 1.154.173-.107.703.32.048.106-.703-.319-.048.174-1.152-.705-.105.484-1.04-.32-.048.318-2.114c.391.018.624.051.705.106l-.107.705c.135-.024.26-.135.379-.336l1.088.164.037-.257a1.865 1.865 0 01-.309-.111 2.142 2.142 0 01-.283-.304c-.035-.05-.051-.097-.043-.139l1.797.665.115-.768a22.51 22.51 0 00-1.156-.143 22.702 22.702 0 00-1.167-.078l-.446-.065c-.201-.118-.365-.187-.494-.206.07-.47.109-.868.115-1.194.004-.327.012-.663.021-1.01.039-.257.159-.609.356-1.061.42.109.654.144.703.107a.605.605 0 01-.025-.267 1.1 1.1 0 01-.311-.111l.328-2.175a5.047 5.047 0 00-.629-.162.812.812 0 01-.4-.388l.107-.703-.322-.049c.095-.334.13-.568.107-.704l-1.046-.876.058-.386-1.408-.211-.163 1.087-.706-.106c-.049.037-.231.381-.545 1.031l-.385-.058c-.058.383-.113.748-.166 1.087l-.318-.047c-.082.249-.01.5.213.751l-.057.385c-.19.103-.295.216-.314.346a3.367 3.367 0 01-.161.63.486.486 0 01-.203.035c-.006.043-.088.162-.248.355l.383.057-.105.704.32.049c.021.134-.022.28-.131.438-.008.043-.064.122-.168.237-.18.323-.242.597-.189.822.052.228.109.432.17.615-.149.11-.293.349-.436.72l-.705-.105c-.035-.05-.049-.118-.035-.203.013-.085-.084-.166-.289-.241l.105-.704-.64-.096a1.017 1.017 0 00-.112.311l.647.489-.108.705 1.409.211-.116.769a.69.69 0 00-.211.099.737.737 0 01-.158.172c-.14.069-.287.023-.437-.131l-.219-.294.215.752c-.526.009-.889-.046-1.09-.164l.107-.704-1.791-.269c-.049-.27-.134-.413-.263-.434l.541 1.195c.475.028.838.083 1.088.164l-.116.768c.128.019.284 0 .467-.06.042.006.135-.023.275-.09.409-.112.663-.052.758.179.059.183.141.371.242.561l.321.048c.076.362.084.756.019 1.18-.066.428-.15.84-.252 1.239l-.306 1.166c.078.053.177.115.3.175-.013.086-.15.261-.408.529l.385.057-.115.768c-.312.041-.563.111-.752.215l.703.104-.067.449-.704-.107c.066.142.117.237.154.286.021.135.045.268.068.403a.936.936 0 01-.486.189c-.305-.003-.504.012-.596.04l-.056.386c.334.094.568.128.703.105l.029-.192c.025-.17.141-.218.35-.145l-.059.385.385.059a3.034 3.034 0 01-.178.3 1.065 1.065 0 00-.264.025c.164.636.223 1.124.172 1.466l-.385-.058c-.203.756-.33 1.326-.388 1.709-.038.261-.034.527.012.787l.701.563-.096.64c-.178.017-.393.357-.645 1.018-.253.659-.404 1.008-.453 1.043.17.024.28.174.328.441.34.053.704.108 1.086.164l.216.752c.206.078.523.144.95.209.774.075 1.309.132 1.61.178l-.059.386.32.047c.047.268.12.519.215.751.231-.095.508-.053.83.126.049.268.135.412.264.43l.164-1.086c-.349-.008-.582-.045-.705-.105l-.213-.752-.199-.424c.453-.107.791-.185 1.018-.24l-.057.385c.707-.067 1.082-.099 1.127-.09.213.029.539.166.984.408l-.058.385c.341.052.704.105 1.089.164m-12.933-4.961c.342.052.685.081 1.035.09.084.013.219-.01.402-.07l-.32-.046a9.192 9.192 0 01-1.061-.359l-.056.385zm3.603-20.861c-.175-.288-.412-.454-.711-.497-.013.084-.002.152.036.2.127.019.351.117.675.297m.203 5.594c-.041-.31-.05-.53-.031-.658-.006-.263-.047-.421-.125-.477-.732-.068-1.22-.14-1.472-.221a5.95 5.95 0 00-.18.757c-.051.341.072.536.373.58.127.019.369-.01.73-.087.118-.199.266-.308.444-.326.065.142.152.285.261.432M80.3 53.749l-.84-.519-.114.769c.469.069.792.097.969.08a.71.71 0 01-.015-.33m2.31.74l.115-.767-.646-.491.049-.32c.097-.071.221-.162.367-.272l-.32-.048.174-1.151c-.17-.026-.318.083-.442.325l-1.031-.546c.232.209.469.375.711.498l-.115.767c-.463-.11-.719-.149-.768-.114.006-.043.033-.082.082-.119a29.356 29.356 0 00-1.102-.493l-.068.448 1.088.164-.049.319c.342.052.703.108 1.088.164l.279.763-.384-.06-.059.386-.768-.115-.105.703c.255.039.506.119.748.244-.014.086-.23.161-.656.228-.426.067-.727.108-.903.126l-.056.384 1.47.221.596-1.35.705.106zm16.254 2.449c-.014.088-.025.173-.039.258a2.836 2.836 0 00-.391.006l-1.09 7.232-.322-.048-.269 1.792-1.194.54c-.043.561-.097.923-.164 1.088l-.384-.058-.436.72c-.387.247-.73.435-1.033.564-.304.13-.776.298-1.418.507l-.059.384c-.215-.034-.427-.065-.64-.098l-.058.385-1.151-.175-.039.257a14.916 14.916 0 00-2.068-.181c-2.136-.016-3.29-.037-3.46-.061-.256-.039-.718-.154-1.386-.342l.066-.447-2.137-.585.057-.384c-.525.009-.888-.047-1.088-.164l-.203-.817c-.201-.117-.346-.183-.428-.195a8.122 8.122 0 01-.668-.362l.039-.256c-.031-.092-.154-.132-.375-.122-.041-.007-.152 0-.328.015l.057-.382-.646-.493.116-.765-.658-.426c.121-.507.176-.869.166-1.09l-.383-.057.165-1.088-.322-.049c-.114-.977-.079-2.083.109-3.321l-.385-.058.096-.641c.148-.108.298-.237.453-.389.031-.214-.081-.339-.336-.378l.539-3.585.385.058.058-.382-.385-.059.444-2.944-.319-.048c-.025-.135-.013-.351.032-.651.119-.505.199-.885.238-1.141l.318.047c.094-.333.024-.585-.213-.752l.049-.319c.239-.139.364-.249.377-.336l.115-.767c-.214-.034-.302-.155-.269-.369.037-.256.076-.513.115-.767.084.012.193.006.328-.018.082-.249.114-.46.097-.639l-.319-.048.269-1.793.32.049c.125-.549.075-.926-.155-1.137l.048-.318c.281-.132.463-.476.547-1.031.045-.299.058-.536.043-.715l-.32-.048.337-2.238.32.047c.061-.994.168-1.699.317-2.112l.386.058c.218-.577.434-1.156.653-1.733l.321.047.117-.766 1.193-.542c.109-.157.211-.393.303-.707.09-.314.187-.529.293-.644l.704.106.116-.767c.377.1.633.138.766.116l.427-.656c.512.077.874.132 1.088.163l.059-.383.703.107.058-.384c.341.051.704.105 1.089.164l.048-.322 3.264.492.027-.191c-.023-.135.053-.189.222-.163.024.134.047.269.069.404l2.561.386-.049.32c.647.053 1.137.127 1.473.221l-.057.383.703.107-.058.383c.433.024.689.063.769.116l.213.753.705.106-.049.32c.411.455.827.889 1.244 1.3l-.058.385c.115.103.254.191.42.259.041.005.138.086.291.239-.12.506-.172.848-.154 1.025l.384.057-.117.769.32.048c.024.134-.002.371-.074.708-.072.339-.137.699-.195 1.083l.383.06-.444 2.942.384.058a16.84 16.84 0 01-.198 2.196c-.071.469-.201 1.18-.389 2.135-.144.709-.272 1.42-.386 2.135.255.038.367.165.335.377a3.74 3.74 0 01-.453.39c.176.288.258.476.244.56a3.026 3.026 0 00-.339.078c-.168 1.112-.323 2.507-.467 4.185-.145 1.682-.248 2.735-.313 3.161l.383.056zm18.049-21.632c.08.08.179.139.287.174-.039.077-.211.23-.519.461v-.404c0-.153.078-.231.232-.231m8.928-2.016h-.344c-.041.271-.049.59-.031.957.019.368.031.726.031 1.073v.636h-.289c0 .814-.059 1.587-.174 2.322-.346 2.204-.517 3.479-.517 3.826h-.346a5.908 5.908 0 00-.059.691v2.017h-.287c0 .96-.057 1.843-.172 2.65-.347 2.42-.519 3.801-.519 4.147h-.346c-.078.538-.135 1.316-.172 2.333-.041 1.017-.098 1.796-.174 2.333h-.287c0 .654-.058 1.402-.173 2.247a16.365 16.365 0 00-.174 2.189h-.344c-.039.154-.039.499 0 1.036.037.539.037.98 0 1.327h-.346c0 .613-.059 1.402-.174 2.361-.114.96-.172 1.748-.172 2.362l-.98.346v.287h-1.383v-.287a3.687 3.687 0 00-.719-.059h-.662c-.5 0-.941.01-1.324.03-.385.019-.731.029-1.039.029v.287c-.191 0-.287-.097-.287-.287-.154-.076-.404-.116-.749-.116-.807.116-1.403.174-1.786.174a1.773 1.773 0 01-.518-.058c-.078-.192-.193-.308-.346-.346v-.347h.346c-.039-.152-.154-.267-.346-.345v-2.707h-.345c-.039-.23-.039-.556 0-.981a4.84 4.84 0 000-1.035h-.346v-2.363h-.287c-.041-.192-.059-.479-.059-.863 0-.729.018-1.459.059-2.19h-.348c0-.537-.056-1.209-.172-2.015-.115-.807-.172-1.478-.172-2.016h-.346a1.106 1.106 0 01-.058-.346V52.3c0-.691.02-1.382.058-2.074h-.347c0-.613-.057-1.343-.172-2.188a16.544 16.544 0 01-.172-2.189h-.347a1.135 1.135 0 01-.057-.346v-.288c.076-.845.115-1.459.115-1.844 0-.268-.019-.461-.058-.576h-.287v-1.67h-.403c.037-.818.057-1.423.057-1.814 0-.273-.02-.486-.057-.642h-.288v-1.345h-.403c.037-.712.056-1.237.056-1.575 0-.336-.019-.58-.056-.729h-.289v-1.383h-.346a3.454 3.454 0 01.029-.979c.057-.383.106-.731.145-1.038h7.258c.037.147.153.255.345.328v.651h.692v-.287c.191 0 .287.113.287.346.154 0 .441-.02.865-.059.422-.038.709-.038.863 0v.346c.614.192.942.307.981.345l-.289.634-.692-.287v-.347c-.076-.038-.287-.038-.632 0v.347c-.194 0-.328-.039-.405-.116-.037-.076-.077-.152-.115-.231l.115.55c.077.042.307.042.692 0-.069.493-.165.983-.287 1.466h-1.096v-1.961a2.142 2.142 0 00-.287-.114.962.962 0 01-.231-.056c.077.308.116.73.116 1.268s-.039 1.306-.116 2.304c-.078.998-.115 1.652-.115 1.958.115-.076.231-.306.346-.69.422.039.652.039.691 0v.69l-.806.404v4.666h.402c0 1.037.115 2.247.348 3.629.498 2.958.748 4.917.748 5.877h.287c0-1.115.23-3.419.691-6.913.231-1.729.346-3.169.346-4.322h.289c.037-.191.057-.498.057-.921 0-.231-.02-.576-.057-1.036a13.318 13.318 0 01-.059-1.037c.039-.308.059-.539.059-.691h.402c.038-.808.057-1.421.057-1.844v-.865l-.748-.346v-.339c.346-.077.672-.19.98-.341-.154-.491-.232-.925-.232-1.304 0-.303.066-.606.203-.909.133-.302.258-.566.373-.793h7.432v1.67zm15.035-2.457h-.346v2.593h-.23v1.613h.23v3.168h-.23v1.901h.154c.049.46.076.864.076 1.209 0 .231-.027.461-.076.692h-.115c-.104.078-.117.288-.039.634.152.229.23.46.23.691h-.23c0 .423.037 1.114.115 2.073.076.961.115 1.691.115 2.19v1.093c-.154.461-.23.807-.23 1.038h-.346v1.555h.346c0 .5-.115.826-.346.98v.287c.066.071.144.13.231.174 0 .422-.079.902-.231 1.439.192.115.307.231.346.346a.96.96 0 01-.231.174c.116.806.192 1.265.231 1.38-.194.08-.309.194-.346.347h.346c0 .807-.02 1.248-.057 1.325-.04.115-.346.307-.924.577v-.29c-.154.079-.25.117-.287.117a.443.443 0 00-.058.173c-.192-.038-.287 0-.287.115v.23h.921c.077.193.192.309.346.345-.039.347-.039.559 0 .634h.172c0 .039.059.134.174.288h-.346v1.21c0 .576-.039.96-.115 1.152-.115.308-.402.596-.865.863v.289a3.622 3.622 0 01-.633.043h-.633v-.319c-.539-.085-.961-.128-1.268-.128-1.115 0-2.074.149-2.88.447-.116-.925-.241-2.422-.373-4.488-.137-2.065-.223-3.252-.26-3.562h.287c.076-.346.115-.7.115-1.066v-5.963l.518-.288v-.287a.618.618 0 01-.287-.058v-.98h-.346a7.813 7.813 0 01-.115-1.267c0-.267.039-.556.115-.864.076-.305.115-.536.115-.691h.231v-4.148h-.231v-.98h.231v-1.611a.803.803 0 00-.192-.058.94.94 0 01-.039-.288h.231v-1.843c.191-.192.287-.308.287-.347h-.287c.037-.461.037-.786 0-.978a.987.987 0 01-.231-.634h.231v-4.148h2.535v.346c.115 0 .248-.077.402-.231.154-.151.347-.193.576-.115v.172c.039.116.135.174.289.174v-.346h1.612v-.23c0-.077.058-.115.173-.115.038.115.096.23.172.345h1.557v.346h-.346c.037.115.153.211.346.287v1.268z" fill="#C0C0BF" fill-rule="nonzero"/><path d="M151.128 25.429v-.519c-.039-.114-.135-.172-.289-.172v.691h.289z" fill="#C0C0BF" fill-rule="nonzero"/><path fill="#C0C0BF" d="M149.716 22.47h.287v.346h-.287z"/><path d="M161.071 62.43c-.039-.038-.057-.116-.057-.23 0-.116-.097-.172-.289-.172v.402h.346zm-3.053-23.619v-.519c-.039-.114-.135-.173-.289-.173v.692h.289zm-5.818-4.666a2.245 2.245 0 01-.288-.115c.038-.115.134-.192.288-.23v.345zm14.056 31.05v1.555c0 1.346-.058 2.651-.173 3.917l-1.153-.517-.115.344h-.806l-.172-.344h-1.498c-.079-.077-.116-.134-.116-.172-.039-.116-.154-.154-.345-.116v.288a18.112 18.112 0 00-1.21-.059c-.308 0-.538.02-.692.059v.344h-1.094c-.038-.153-.172-.267-.403-.344.037-.039.057-.155.057-.346 0-.038-.02-.135-.057-.288.197-.191.37-.307.518-.346l1.441.288v-.633h-.518v-.519c-.079-.076-.386-.096-.923-.057v-3.918h-.518v-.23h.403l.115-5.931c.191-.039.308-.058.345-.058.116-.078.116-.156 0-.232h-.345a28.23 28.23 0 01-.172-2.074 31.622 31.622 0 00-.174-2.132h.691v-.288l-.691-.347v-.804l.346-.809v-1.094c0-.422-.172-.711-.518-.863v-.347h.518v-2.879c0-.654-.086-1.412-.26-2.276-.172-.865-.258-1.391-.258-1.584.115-.267.172-.479.172-.634h-.633v-.691c-.74-.152-1.127-.231-1.164-.231-.221 0-.666.308-1.332.922l-.441.289v1.094h-.346l-.172 9.217h.229l-.057.863c-.193.462-.172.711.057.75a.968.968 0 01-.229.172c0 .654.028 1.383.084 2.191.059.805.088 1.266.088 1.381l.518.346-.518.115v.865l-.346.116c0 .228.037.384.116.46.076.077.152.153.23.229v1.614h.23l-.23.115v1.152c.037 0 .076-.019.115-.058.037.039.115.212.231.518a2.733 2.733 0 01-.289.174c0 .038-.02.154-.057.346h.23l-.23 1.325h.346v2.361l-.518.173v.23a.434.434 0 00.172.058c.307.153.479.287.518.404.037.23.019.489-.061.776-.078.289-.178.605-.295.953-.596.113-1.221.22-1.873.315-.654.097-1.041.107-1.158.029-.041-.231-.16-.344-.358-.344v.344h-1.611v.345h-1.096v-.345c-.269 0-.482.039-.632.115l-.347.23c-.038-.114-.136-.23-.288-.345v-5.127a.512.512 0 00.23-.058c0-.037.02-.153.058-.345l-.634-.288v-.98h.346v-1.958c-.231-.115-.346-.211-.346-.289l.461-.172v-.058c-.078-.153-.174-.191-.289-.114.078-.308.115-.731.115-1.268V58.8c0-.728.059-1.306.174-1.727-.193-.116-.289-.23-.289-.346h.289v-.575c-.039-.154-.135-.174-.289-.059v-.576c.039-.152.135-.173.289-.058v-.577c-.039-.15-.135-.172-.289-.056a40.958 40.958 0 01-.057-1.787c0-.653.116-1.093.346-1.323h.231c-.039-.039-.058-.097-.058-.174h-.288c-.039-.037-.039-.23 0-.576l-.346-.23c0-.192.115-.347.346-.461.191-.769.076-1.363-.346-1.785v-.462c.268-.153.404-.307.404-.46-.232-.346-.367-.576-.404-.692v-.806l.634-.633c-.038-.039-.154-.077-.347-.115-.037 0-.134-.02-.287-.059.059-.205.18-.386.346-.518-.154-.422-.25-.921-.289-1.499-.041-.71-.06-1.42-.057-2.13v-1.21a.617.617 0 01-.115-.172c.076-.039.172-.077.287-.116v-1.326l-.287-.173c.037-.037.135-.076.287-.114-.191-.691-.287-1.287-.287-1.785 0-.423.096-.961.287-1.613a.737.737 0 01-.287-.462c1.574.154 2.727.24 3.457.259.727.021 1.496.03 2.303.03.076-.423.134-.634.174-.634.191 0 .326.051.404.153.113.206.191.307.228.307h.807c0 .078.02.155.059.232.076 0 .171.038.287.115 0 .576-.02 1.017-.057 1.324-.039.308-.25.787-.634 1.44l.691-.23c.154-.077.297-.336.431-.778.135-.442.202-.719.202-.834h.289v-.577c.076-.039.306-.039.691 0v-.345h.634v-.347h1.266v-.345c.192 0 .539-.019 1.037-.058.499-.037.883-.057 1.153-.057.267 0 .633.038 1.096.115v.345c.306-.038.517-.038.632 0l.518.519h.75l.691.979h.287c-.039.309-.039.519 0 .635l.635.287v.691h.346a1.47 1.47 0 01-.346.172v.462h.346v.633h.345c.038.192 0 .48-.115.865-.115.384-.193.634-.23.748-.039.116.017.231.172.345v6.741h.288v1.153l-.46.171c-.041.209-.06.421-.059.634 0 .232.02.443.059.635.037.038.115.038.23 0 .047.051.086.11.115.173h-.462l-.229.172c.037.154.153.269.346.346v.921h.345c.115.768.172 1.497.172 2.189 0 .425-.009.845-.029 1.268-.019.422-.028.827-.028 1.209 0 .77.057 1.326.173 1.672-.27.153-.518.308-.75.459-.037.078-.037.25 0 .519l.289.174v.633h.288v.287c-.077.04-.153.079-.23.116l.23 1.498c-.193.23-.288.462-.288.691h.288v1.901h.346c0 .117-.058.25-.173.403-.116.155-.173.365-.173.634h.346zM17.917 20.892c.152.039.307.078.461.115-.041.116-.231.173-.577.173v-.288h.116zm-2.477-4.839c.114.308.171.539.171.692h.345l.348-.346c-.539-.46-.672-.806-.405-1.036l.231.345v-.288h-.519l-.171.633zm0-2.764c.075.039.094.115.056.23-.038.192.058.288.288.288v-.518h-.344zm-1.326 3.456a2.671 2.671 0 00-.058.345c0 .116.078.155.231.116a2.192 2.192 0 01-.173-.461m-1.613.979c.039-.115.096-.23.172-.346v.174c.039.115-.02.172-.172.172m-.287-2.304c-.116.193-.174.308-.174.346.076.038.174.077.288.114.153-.037.212-.114.173-.229-.039-.116-.135-.193-.287-.231m-.347 2.419c.038.231.075.385.116.461.115.27.192.461.231.576.383-.039.594-.039.633 0a.791.791 0 00.23-.576c0-.076-.029-.279-.086-.605-.058-.324-.01-.489.145-.489l-.635-.173-.173-.288c-.153.078-.251.116-.288.116a.417.417 0 00-.057.172c.153.229.231.383.231.461l-.347.345zm-.518-4.032c-.077.153-.116.25-.116.288.077.193.231.251.461.172l.173-.46h-.518zm-.288 4.723l.461.115-.173-.46c-.346.078-.557.115-.633.115l.345.23m-.98-3.455c-.076.077-.115.135-.115.172.039.116.174.173.404.173a2.167 2.167 0 01-.289-.345m-4.262-2.94h6.509l1.499 2.305h.46c.191-.383.364-.748.519-1.095.152-.345.306-.748.46-1.21.383 0 1.114-.056 2.189-.172 1.075-.115 1.939-.173 2.591-.173v.865c-.459.538-.746.921-.863 1.152v.46l-.461.288c-.076.462-.172.808-.287 1.038l-.692.633a46.19 46.19 0 01-1.066 2.707c-.287.654-.586 1.019-.893 1.095-.152.04-.385.058-.691.058-.424 0-.855-.028-1.295-.087-.491-.063-.981-.13-1.47-.202-.653.079-1.306.155-1.958.231a5.37 5.37 0 00-.404-1.065c-.153-.288-.403-.663-.748-1.124l.517-.172a.637.637 0 01.461.057c.076.192.194.288.346.288.153-.267.326-.538.519-.806.153-.039.305-.095.461-.173v-.461h-.634v-.692l.461-.172v-.98h-.288v.692l-.519.288-.172.864-.807-.346-.345 1.268c-.615-.461-.98-.749-1.094-.864-.424-.423-.712-.826-.865-1.21-.042-.327-.08-.653-.115-.98l-.692-.345a2.487 2.487 0 01-.403-.95 28.924 28.924 0 00-.23-1.01m-4.55 8.931c-.309-.077-.481-.174-.52-.289-.039-.154.077-.231.346-.231l.174.52zM.173 20.72c.039.039-.018.154-.173.346v-.289c.04-.076.097-.095.173-.057m139.999 5.141h-.634v-.518h-.517l-.289-.461c-.5.077-.942.116-1.325.116l-1.441-.116v-.346c.576 0 1.018-.037 1.326-.115.115-.038.345-.104.691-.202.345-.094.555-.143.633-.143h1.094c.308.077.462.345.462.806v.979zM105.198 10.195a.541.541 0 01-.076-.227c-.153-.201-.379-.277-.68-.226v.226c.102.051.352.126.756.227m.83-1.662V8.08h-1.21v.453c.856.15 1.36.226 1.511.226a1.188 1.188 0 01-.301-.226m2.18-1.692l-1.205-.088c.076 1.016.158 1.628.244 1.836.15.012.303-.003.459-.043.14-.544.308-1.113.502-1.705m41.527 16.629c-.377.142-.754.281-1.133.422.493.892.822 1.414.988 1.567.141-.052.274-.128.399-.229-.1-.553-.184-1.141-.254-1.76M115.698 29.263c-.002-.086-.117-8.715-4.609-10.101-1.836-.565-3.377-.5-4.582.197-1.196.69-1.73 1.826-1.844 2.331-.219.95.498 2.581 1.556 3.01 1.223.497 2.387-1.039 2.971-1.999l1.436.875c-2.008 3.298-4.02 3.096-5.041 2.681-1.901-.772-2.938-3.29-2.563-4.941.231-1.003 1.059-2.498 2.643-3.412 1.627-.94 3.619-1.058 5.919-.347 5.667 1.747 5.792 11.29 5.796 11.696l-1.682.01z" fill="#C0C0BF" fill-rule="nonzero"/><path d="M114.745 22.886c-.094-.395-2.197-9.704 2.904-12.726 2.073-1.227 4.037-1.579 5.837-1.045 1.753.521 2.909 1.782 3.364 2.705.752 1.515.333 4.206-1.337 5.401-.895.642-2.803 1.308-5.528-1.432l1.193-1.184c.792.797 2.282 2.017 3.356 1.249.928-.665 1.244-2.417.812-3.289-.23-.464-1.015-1.445-2.337-1.837-1.336-.396-2.85-.1-4.502.878-4.055 2.401-2.145 10.813-2.125 10.897l-1.637.383zm43.737 1.98c-4.717.042-8.59 3.759-8.631 8.283l-.004.389h1.358l.004-.383c.039-3.862 3.236-6.918 7.281-6.957l.382-.004v-1.332l-.39.004zM35.503 28.412s-.514-1.253.246-3.217c.574-1.491 2.195-3.625 4.923-3.385.356 1.11.433 1.504.388 2.073-.321 4.175-4.881 4.689-5.557 4.529" fill="#C0C0BF" fill-rule="nonzero"/><path d="M37.19 26.85v-.519c.039-.115.133-.173.287-.173v.692h-.287z" fill="#C0C0BF" fill-rule="nonzero"/><path fill="#C0C0BF" d="M38.314 23.89h.289v.346h-.289z"/><path d="M39.159 23.734l1.133.422c-.492.892-.821 1.415-.987 1.568a1.45 1.45 0 01-.398-.23c.1-.553.184-1.141.252-1.76M38.466 34.57c-.041-4.524-3.912-8.24-8.631-8.283l-.389-.004v1.333l.382.003c4.044.039 7.243 3.096 7.282 6.959l.002.381h1.358l-.004-.389z" fill="#C0C0BF" fill-rule="nonzero"/></svg>