<svg height="97.516" viewBox="0 0 141.335 90.297" width="141.335" xmlns="http://www.w3.org/2000/svg"><g fill="#f2abaf" transform="translate(-6301.61 353.291)"><path d="m6301.67-278.481.02.116a2.488 2.488 0 0 0 2.42 1.835c4.08-.344 6.34-9.824 7.6-12.8a155.743 155.743 0 0 1 14.15-25.763 126.261 126.261 0 0 1 19.75-23.1c7.68-7.053 17.62-13.214 27.84-7.8 9 4.765 15.97 13.928 21.75 22.046 6.9 9.681 11.5 20.622 17.34 30.936 3.32 5.882 8.32 11.229 12.68 16.334 4.02 4.708 8.76 11.134 14.72 13.5 3 1.193 4.29-3.645 1.33-4.821-2.49-.991-4.67-3.713-6.49-5.57-3.18-3.24-6.12-6.711-9.02-10.2a117.255 117.255 0 0 1 -14.03-21.235c-5.06-9.686-9.95-18.764-16.65-27.427-5.76-7.432-12.91-15.455-21.78-19.173-18.42-7.732-35.41 13.052-45.62 25.463a157.521 157.521 0 0 0 -9.3 13.289c-3.06 4.607-6.37 9.317-8.34 14.512-1.32 3.459-2.79 6.865-4.26 10.26q-1.08 2.5-2.23 4.961c-.27.585-.55 1.162-.85 1.736-.76 1.485-.54.025 1.41-.139.8.612 1.6 1.224 2.41 1.836l-.03-.116c-.66-3.156-5.47-1.817-4.82 1.329"/><path d="m6327.04-319.631-.57-.224a2.526 2.526 0 0 0 2.16 1.239c12.78.059 23.99-.1 35.42-6.484 4.64-2.593 9.34-5.154 13.93-7.837 2.22-1.3 5.48-2.776 7.09-4.853a2.538 2.538 0 0 0 0-3.535c-.02-.023-.05-.045-.07-.068-2.39-2.143-5.94 1.381-3.54 3.536.03.022.05.045.08.067v-3.535c-1.36 1.75-4.21 2.947-6.08 4.071-4.06 2.438-8.32 4.589-12.42 6.97a47.475 47.475 0 0 1 -15.97 6.164c-6.03 1.056-12.36.532-18.44.5l2.16 1.238a3.5 3.5 0 0 0 -2.42-2.074c-3.13-.783-4.45 4.039-1.33 4.821"/><path d="m6314.75-301.959c4.64.106 9.24.818 13.88.924 4.49.1 9.39-1.034 13.83-1.62a157.6 157.6 0 0 0 21.23-4.121c11.56-3.177 25.75-8.306 32.81-18.632 1.82-2.671-2.52-5.168-4.32-2.523-6.67 9.765-21.31 14.118-32.14 16.958a163.212 163.212 0 0 1 -21.09 3.769 83.256 83.256 0 0 1 -12.05 1.13c-4.06-.093-8.09-.792-12.15-.885-3.23-.074-3.22 4.926 0 5"/><path d="m6311.05-284.377c10.01.055 19.99.786 30 .2 8.72-.515 17.2-2.672 25.48-5.346 14.11-4.553 29.76-11.044 39.75-22.417 2.12-2.412-1.4-5.963-3.54-3.536-9.48 10.791-24.22 16.7-37.53 21.131a101.594 101.594 0 0 1 -24.16 5.168c-9.98.783-20.02-.14-30-.2-3.23-.018-3.23 4.982 0 5"/><path d="m6381.46-297.139c8.61 10.062 22.76 10.872 35.09 10.912 3.22.011 3.22-4.989 0-5-11.04-.036-23.82-.41-31.55-9.447-2.1-2.454-5.62 1.1-3.54 3.535"/><path d="m6363.24-288.988c1.81 4.69 6.79 7.11 10.75 9.771 6.1 4.089 12.4 5.709 19.68 6.782a63.432 63.432 0 0 0 15.24-.027c4.78-.459 10.42-1.074 14.45-3.927 2.61-1.847.12-6.185-2.52-4.317-6.35 4.491-17.42 4.046-24.84 3.541-4.82-.329-13.48-1.309-17.23-4.685-2.99-2.7-9.19-4.542-10.71-8.467-1.16-2.973-5.99-1.682-4.82 1.329"/></g></svg>