<svg xmlns="http://www.w3.org/2000/svg" width="140.591" height="97.516" viewBox="0 0 140.591 97.516">
  <defs>
    <style>
      .cls-1 {
        fill: #f2abaf;
        stroke: rgba(0, 0, 0, 0);
      }
    </style>
  </defs>
  <g id="Group_142" data-name="Group 142" transform="translate(-74.231 -982.495)">
    <path id="Path_105" data-name="Path 105" class="cls-1" d="M3197.99-275.772c6.65-12.487,21.39-18.751,33.23-25.238,15.18-8.323,31.31-16.611,48.67-19.014,3.18-.441,1.82-5.258-1.34-4.822-17.67,2.448-34.43,10.954-49.86,19.518-12.62,7.005-27.89,13.662-35.02,27.033-1.51,2.844,2.8,5.37,4.32,2.523" transform="translate(-3076 1342.059)"/>
    <path id="Path_106" data-name="Path 106" class="cls-1" d="M3212.82-267.433c3.36-4.97,9.72-8.11,14.77-11.148,5.87-3.537,11.88-6.86,17.87-10.192,12.31-6.851,25.84-10.819,39.06-15.5,3.01-1.069,1.72-5.9-1.33-4.822-14.29,5.061-28.62,9.529-41.92,16.931-6.48,3.6-12.93,7.254-19.26,11.118-5,3.054-10.18,6.163-13.51,11.09-1.81,2.678,2.52,5.176,4.32,2.523" transform="translate(-3076 1342.059)"/>
    <path id="Path_107" data-name="Path 107" class="cls-1" d="M3237.27-263.4c5.48-6.8,14.63-11.137,22.5-14.64,4.83-2.152,9.83-3.862,14.66-5.912,4.71-2,9.84-2.629,14.57-4.631,2.96-1.254.41-5.56-2.53-4.317a118.844,118.844,0,0,1-15.61,4.813,69.275,69.275,0,0,0-15.25,6.415c-7.68,4.359-16.19,7.679-21.88,14.736-2,2.485,1.51,6.046,3.54,3.536" transform="translate(-3076 1342.059)"/>
    <path id="Path_108" data-name="Path 108" class="cls-1" d="M3152.54-329.291c10.98,3.2,21.01,9.55,30.14,16.3,7.98,5.9,16.69,10.857,23.43,18.266,2.17,2.39,5.7-1.156,3.54-3.536-7-7.688-16.08-13.021-24.45-19.048-9.62-6.934-19.85-13.459-31.33-16.8-3.1-.9-4.41,3.921-1.33,4.821" transform="translate(-3076 1342.059)"/>
    <path id="Path_109" data-name="Path 109" class="cls-1" d="M3168.03-345.88c12.34,1.248,22.76,10.146,31.97,17.685,9.64,7.886,19.92,14.946,28.35,24.206,2.17,2.388,5.7-1.158,3.53-3.537-9.12-10.017-20.37-17.73-30.83-26.236-9.67-7.857-20.24-15.826-33.02-17.118-3.2-.325-3.17,4.679,0,5" transform="translate(-3076 1342.059)"/>
    <path id="Path_110" data-name="Path 110" class="cls-1" d="M3196.56-354.283c12.45,8.823,25.61,16.662,36.55,27.406,3,2.939,5.68,6.224,8.54,9.285,1.9,2.025,4.5,5.536,7.39,6.182,3.15.7,4.48-4.119,1.33-4.821-2.51-.563-5.85-5.6-7.52-7.423-2.89-3.146-5.69-6.324-8.8-9.261-10.52-9.954-23.2-17.347-34.97-25.685-2.63-1.87-5.13,2.469-2.52,4.317" transform="translate(-3076 1342.059)"/>
  </g>
</svg>
