<svg xmlns="http://www.w3.org/2000/svg" width="186.861" height="97.516" viewBox="0 0 186.861 54.744">
  <defs>
    <style>
      .cls-1 {
        fill: #f2abaf;
        stroke: rgba(0, 0, 0, 0);
      }
    </style>
  </defs>
  <g id="Group_141" data-name="Group 141" transform="translate(-66.812 -1011.827)">
    <path id="Path_140" data-name="Path 140" class="cls-1" d="M4740.75-272.755c13.08-13.707,33.59-20.4,51.21-26.1,23.24-7.515,47.79-10.6,72.06-7.174,3.16.446,4.51-4.371,1.33-4.821-24.68-3.489-49.14-.63-72.9,6.605a284.023,284.023,0,0,0-29.61,11.221c-9.43,4.072-18.49,9.255-25.63,16.738-2.22,2.331,1.31,5.872,3.54,3.535" transform="translate(-4614 1338.059)"/>
    <path id="Path_141" data-name="Path 141" class="cls-1" d="M4685.61-291.432c6.4-7.392,15.08-12.194,23.81-16.321a154.144,154.144,0,0,1,28.69-10.384c24.17-5.977,47.54-1.705,69.18,10.134,2.83,1.548,5.35-2.77,2.52-4.317-21.89-11.977-45.04-16.369-69.62-11.4-11.06,2.233-21.68,6.424-31.95,11.032-9.57,4.3-19.22,9.7-26.16,17.725-2.1,2.425,1.42,5.977,3.53,3.535" transform="translate(-4614 1338.059)"/>
  </g>
</svg>
