<svg height="97.516" viewBox="0 0 99.559 87.026" width="99.559" xmlns="http://www.w3.org/2000/svg"><g fill="#f2abaf" transform="translate(-89.045 682.136)"><path d="m93.964-606.992c1.429-5.308 6.163-10.131 9.421-14.608q7.963-10.944 16.555-21.408c5.5-6.74 11.554-12.993 17.677-19.169 5.592-5.639 11.991-10.232 17.7-15.711 2.331-2.236-1.209-5.767-3.535-3.537-6.15 5.9-12.954 10.922-18.976 16.995a279 279 0 0 0 -18.752 20.77c-5.557 6.858-10.888 13.9-16.081 21.035-2.574 3.536-5.088 7.114-7.582 10.707-.493.708-1.219 2.332.131.79a6.481 6.481 0 0 0 -1.383 2.807c-.84 3.118 3.984 4.439 4.821 1.329"/><path d="m108.382-602.992c5.07-14.331 15.965-27.041 25.9-38.3 9.849-11.159 21.738-20.3 31.454-31.6 2.091-2.432-1.429-5.985-3.535-3.537-10.478 12.182-23.309 22.043-33.762 34.252-9.674 11.3-19.869 23.684-24.881 37.852-1.078 3.048 3.753 4.347 4.821 1.329"/><path d="m120.13-597.4a150.063 150.063 0 0 1 26.391-36.264c10.394-10.715 19.727-22.637 31.218-32.23 2.478-2.069-1.079-5.586-3.535-3.536-11.513 9.612-20.7 21.6-31.219 32.231a150.266 150.266 0 0 0 -27.172 37.276c-1.46 2.866 2.854 5.4 4.317 2.523"/><path d="m137.13-596.4c5.538-11.564 14.179-21.014 22.425-30.683a206.448 206.448 0 0 1 28.184-27.811c2.526-2-1.038-5.516-3.535-3.536a202.579 202.579 0 0 0 -28.185 27.811c-8.477 10.023-17.483 19.744-23.206 31.7-1.386 2.893 2.925 5.43 4.317 2.523"/></g></svg>