<svg xmlns="http://www.w3.org/2000/svg" width="160.445" height="97.516" viewBox="0 0 160.445 42.553">
  <defs>
    <style>
      .cls-1 {
        fill: #f2abaf;
      }
    </style>
  </defs>
  <g id="Group_139" data-name="Group 139" transform="translate(-1616.997 -1010.601)">
    <path id="Path_57" data-name="Path 57" class="cls-1" d="M1626.82-290.333c4.69-3.136,9.77-3.047,15.2-2.843,5.64.212,11.19-.443,16.82-.8,12.54-.8,25.15-1.774,37.7-2.3,24.7-1.03,49.28,3.242,73.87,4.758,3.23.2,3.21-4.8,0-5-25.28-1.559-50.42-5.735-75.82-4.677-13.22.551-26.52,1.574-39.73,2.48-5.95.408-11.68.447-17.64.433a22.583,22.583,0,0,0-12.92,3.631c-2.67,1.782-.17,6.116,2.52,4.317" transform="translate(0 1343.059)"/>
    <path id="Path_58" data-name="Path 58" class="cls-1" d="M1624.27-302.923c4.27-3.815,11.21-4.988,16.78-5.542q9.135-.91,18.29-1.645c13.38-1.052,26.75-1.323,40.17-1.182,12.81.135,25.1,1.988,37.77,3.385,12.41,1.367,24.88,2.679,37.04,5.627,3.14.759,4.47-4.062,1.33-4.821-12.02-2.914-24.35-4.256-36.62-5.614-6.85-.757-13.6-2.072-20.46-2.721-7.6-.718-15.25-.836-22.87-.889-14.03-.1-27.98.489-41.96,1.672-10.64.9-24.56.638-33,8.2-2.41,2.155,1.14,5.679,3.53,3.535" transform="translate(0 1343.059)"/>
    <path id="Path_59" data-name="Path 59" class="cls-1" d="M1620.12-319.917c28.14-6.5,56.99-7.611,85.77-7.527a224.079,224.079,0,0,1,40.68,3.988c8.95,1.66,18.18,4.119,27.33,4.309,3.23.067,3.22-4.933,0-5-9.51-.2-19.15-2.879-28.47-4.584a224.037,224.037,0,0,0-39.54-3.713c-29.2-.166-58.56,1.115-87.1,7.706-3.14.725-1.81,5.546,1.33,4.821" transform="translate(0 1343.059)"/>
  </g>
</svg>
